<?xml version="1.0" encoding="UTF-8" standalone="no"?>
<!-- Created with Inkscape (http://www.inkscape.org/) -->

<svg
   version="1.1"
   id="svg2"
   width="666.66669"
   height="666.66669"
   viewBox="0 0 666.66669 666.66669"
   sodipodi:docname="6325255.ai"
   xmlns:inkscape="http://www.inkscape.org/namespaces/inkscape"
   xmlns:sodipodi="http://sodipodi.sourceforge.net/DTD/sodipodi-0.dtd"
   xmlns="http://www.w3.org/2000/svg"
   xmlns:svg="http://www.w3.org/2000/svg">
  <defs
     id="defs6">
    <clipPath
       clipPathUnits="userSpaceOnUse"
       id="clipPath16">
      <path
         d="M 0,500 H 500 V 0 H 0 Z"
         id="path14" />
    </clipPath>
    <clipPath
       clipPathUnits="userSpaceOnUse"
       id="clipPath28">
      <path
         d="m 16.457,448.883 h 461.64 V 29.149 H 16.457 Z"
         id="path26" />
    </clipPath>
    <clipPath
       clipPathUnits="userSpaceOnUse"
       id="clipPath48">
      <path
         d="M 0,500 H 500 V 0 H 0 Z"
         id="path46" />
    </clipPath>
    <clipPath
       clipPathUnits="userSpaceOnUse"
       id="clipPath80">
      <path
         d="M 0,500 H 500 V 0 H 0 Z"
         id="path78" />
    </clipPath>
    <clipPath
       clipPathUnits="userSpaceOnUse"
       id="clipPath144">
      <path
         d="M 0,500 H 500 V 0 H 0 Z"
         id="path142" />
    </clipPath>
    <clipPath
       clipPathUnits="userSpaceOnUse"
       id="clipPath212">
      <path
         d="M 0,500 H 500 V 0 H 0 Z"
         id="path210" />
    </clipPath>
    <clipPath
       clipPathUnits="userSpaceOnUse"
       id="clipPath244">
      <path
         d="M 0,500 H 500 V 0 H 0 Z"
         id="path242" />
    </clipPath>
  </defs>
  <sodipodi:namedview
     id="namedview4"
     pagecolor="#ffffff"
     bordercolor="#000000"
     borderopacity="0.25"
     inkscape:showpageshadow="2"
     inkscape:pageopacity="0.0"
     inkscape:pagecheckerboard="0"
     inkscape:deskcolor="#d1d1d1" />
  <g
     id="g8"
     inkscape:groupmode="layer"
     inkscape:label="6325255"
     transform="matrix(1.3333333,0,0,-1.3333333,0,666.66667)">
    <g
       id="g10">
      <g
         id="g12"
         clip-path="url(#clipPath16)">
        <g
           id="g18"
           transform="translate(467.3273,200.0566)">
          <path
             d="m 0,0 c -13.177,-39.938 -41.563,-83.708 -83.338,-97.956 -63.12,-21.535 -68.76,-73.304 -183.32,-72.95 -17.861,0.053 -34.441,1.924 -49.738,5.342 -8.223,1.835 -16.077,4.13 -23.552,6.835 -67.864,24.481 -105.021,82.699 -110.323,144.911 -6.987,81.821 48.695,123.102 84.981,147.416 36.287,24.313 77.66,114.688 190.283,115.226 17.17,0.074 34.37,-1.608 51.123,-5.462 38.241,-8.78 77.589,-29.948 101.226,-62.204 1.774,-2.423 3.473,-4.908 5.107,-7.443 C 14.328,124.112 17.968,54.447 0,0"
             style="fill:#5ae4a7;fill-opacity:1;fill-rule:nonzero;stroke:none"
             id="path20" />
        </g>
        <g
           id="g22">
          <g
             id="g24" />
          <g
             id="g36">
            <g
               clip-path="url(#clipPath28)"
               opacity="0.699997"
               id="g34">
              <g
                 transform="translate(467.3273,200.0566)"
                 id="g32">
                <path
                   d="m 0,0 c -13.177,-39.938 -41.563,-83.708 -83.338,-97.956 -63.12,-21.535 -68.76,-73.304 -183.32,-72.95 -17.861,0.053 -34.441,1.924 -49.738,5.342 -8.223,1.835 -16.077,4.13 -23.552,6.835 -67.864,24.481 -105.021,82.699 -110.323,144.911 -6.987,81.821 48.695,123.102 84.981,147.416 36.287,24.313 77.66,114.688 190.283,115.226 17.17,0.074 34.37,-1.608 51.123,-5.462 38.241,-8.78 77.589,-29.948 101.226,-62.204 1.774,-2.423 3.473,-4.908 5.107,-7.443 C 14.328,124.112 17.968,54.447 0,0"
                   style="fill:#ffffff;fill-opacity:1;fill-rule:nonzero;stroke:none"
                   id="path30" />
              </g>
            </g>
          </g>
        </g>
      </g>
    </g>
    <g
       id="g38"
       transform="translate(482.6876,46.8721)">
      <path
         d="M 0,0 H -461.743"
         style="fill:none;stroke:#1a2e35;stroke-width:1;stroke-linecap:round;stroke-linejoin:round;stroke-miterlimit:10;stroke-dasharray:none;stroke-opacity:1"
         id="path40" />
    </g>
    <g
       id="g42">
      <g
         id="g44"
         clip-path="url(#clipPath48)">
        <g
           id="g50"
           transform="translate(38.1627,110.1387)">
          <path
             d="M 0,0 C 2.153,-0.94 7.419,-0.822 7.423,-0.822 7.478,-0.82 6.292,2.626 6.192,2.835 5.037,5.252 1.382,9.243 -1.591,8.842 -3.733,8.552 -4.924,6.408 -4.441,4.392 -3.947,2.331 -1.834,0.802 0,0"
             style="fill:#1a2e35;fill-opacity:1;fill-rule:nonzero;stroke:none"
             id="path52" />
        </g>
        <g
           id="g54"
           transform="translate(39.9801,94.8838)">
          <path
             d="m 0,0 c 2.234,-0.325 6.934,1.037 7.307,1.147 0.742,-2.63 1.717,-5.27 2.851,-7.887 0.646,-1.497 1.344,-2.985 2.063,-4.467 -0.429,0.628 -0.817,1.186 -0.88,1.259 -1.753,2.026 -6.332,4.911 -9.092,3.737 -1.991,-0.844 -2.573,-3.226 -1.574,-5.044 1.019,-1.855 3.463,-2.774 5.443,-3.062 2.009,-0.293 6.039,0.789 7.102,1.088 0.282,-0.565 0.556,-1.133 0.841,-1.698 1.361,-2.71 2.73,-5.408 3.993,-8.096 0.446,-0.948 0.849,-1.896 1.257,-2.844 -0.381,0.557 -0.707,1.023 -0.765,1.09 -1.753,2.025 -6.331,4.91 -9.092,3.737 -1.99,-0.845 -2.573,-3.227 -1.574,-5.044 1.021,-1.856 3.463,-2.774 5.443,-3.062 1.918,-0.281 5.647,0.685 6.911,1.036 0.388,-0.984 0.779,-1.968 1.11,-2.939 0.212,-0.668 0.462,-1.296 0.636,-1.978 0.188,-0.672 0.374,-1.337 0.558,-1.996 0.307,-1.283 0.633,-2.603 0.901,-3.862 0.193,-0.873 0.362,-1.709 0.534,-2.552 -0.432,0.949 -1.318,2.787 -1.41,2.932 -1.425,2.269 -5.514,5.813 -8.421,5.072 -2.095,-0.534 -3.032,-2.8 -2.319,-4.748 0.727,-1.989 3.002,-3.266 4.915,-3.851 2.107,-0.645 6.772,-0.056 7.354,0.021 0.28,-1.393 0.539,-2.752 0.762,-4.038 0.12,-0.68 0.224,-1.319 0.33,-1.963 h 1.855 c -0.137,0.741 -0.28,1.498 -0.437,2.29 -0.278,1.416 -0.604,2.924 -0.953,4.47 0.351,0.139 2.34,0.944 4.103,1.93 1.536,-1.663 5.471,-3.61 5.98,-3.858 -0.535,-1.317 -1.069,-2.592 -1.592,-3.788 -0.157,-0.362 -0.309,-0.698 -0.462,-1.044 h 1.954 c 0.049,0.118 0.097,0.231 0.146,0.353 0.55,1.334 1.111,2.772 1.672,4.253 0.564,-0.118 5.182,-1.056 7.334,-0.571 1.952,0.442 4.316,1.546 5.19,3.476 0.856,1.889 0.09,4.219 -1.96,4.907 -2.844,0.956 -7.185,-2.274 -8.776,-4.43 -0.094,-0.127 -0.958,-1.622 -1.487,-2.573 0.226,0.607 0.453,1.194 0.678,1.821 0.454,1.237 0.87,2.485 1.323,3.826 0.196,0.655 0.394,1.317 0.595,1.986 0.212,0.659 0.352,1.382 0.534,2.078 0.387,1.624 0.7,3.289 0.977,4.973 1.085,-0.395 4.955,-1.741 6.961,-1.601 1.997,0.141 4.5,0.874 5.656,2.649 1.132,1.738 0.728,4.157 -1.193,5.148 -2.667,1.375 -7.448,-1.16 -9.346,-3.051 -0.119,-0.117 -1.329,-1.627 -1.978,-2.468 0.16,1.013 0.323,2.024 0.451,3.054 0.369,2.976 0.65,5.998 0.945,9.013 0.089,0.923 0.189,1.842 0.286,2.763 0.385,-0.146 4.951,-1.846 7.197,-1.688 1.996,0.14 4.501,0.873 5.656,2.649 1.132,1.737 0.728,4.157 -1.193,5.147 -2.667,1.376 -7.447,-1.159 -9.346,-3.05 -0.143,-0.142 -1.881,-2.316 -2.296,-2.891 0.214,2.027 0.446,4.045 0.756,6.025 0.423,2.732 0.99,5.39 1.729,7.923 0.179,-0.067 4.937,-1.863 7.237,-1.702 1.997,0.14 4.501,0.874 5.657,2.649 1.131,1.738 0.728,4.156 -1.194,5.148 -2.667,1.375 -7.447,-1.16 -9.346,-3.05 -0.149,-0.149 -2.018,-2.489 -2.327,-2.938 0.045,0.151 0.075,0.312 0.121,0.461 0.823,2.696 1.959,5.203 3.139,7.498 0.682,1.335 1.409,2.574 2.143,3.762 0.852,-0.425 4.767,-2.326 6.853,-2.409 2,-0.08 4.57,0.374 5.913,2.011 1.316,1.603 1.18,4.051 -0.62,5.248 -2.5,1.66 -7.53,-0.335 -9.625,-2.005 -0.114,-0.091 -1.17,-1.143 -1.928,-1.919 0.339,0.531 0.68,1.086 1.015,1.589 1.256,1.889 2.521,3.543 3.654,4.999 0.651,0.822 1.255,1.553 1.829,2.23 1.053,0.019 5.299,0.148 7.155,1.019 1.811,0.851 3.883,2.437 4.321,4.51 0.429,2.029 -0.82,4.14 -2.969,4.372 -2.983,0.321 -6.528,-3.767 -7.618,-6.215 -0.094,-0.212 -1.187,-3.69 -1.132,-3.689 0,0 0.051,0.001 0.063,0.001 -0.565,-0.641 -1.162,-1.335 -1.8,-2.106 C 55.517,19.739 54.211,18.109 52.911,16.238 51.605,14.373 50.24,12.31 48.998,10.006 47.75,7.698 46.555,5.208 45.656,2.482 45.646,2.451 45.639,2.418 45.629,2.387 c 0.016,0.879 -0.023,3.338 -0.048,3.526 -0.344,2.657 -2.571,7.589 -5.522,8.135 -2.125,0.392 -3.926,-1.273 -4.095,-3.34 -0.173,-2.111 1.357,-4.224 2.85,-5.557 1.683,-1.504 6.355,-2.96 6.728,-3.075 -0.834,-2.603 -1.476,-5.343 -1.975,-8.15 -0.286,-1.606 -0.525,-3.231 -0.743,-4.864 -0.011,0.76 -0.026,1.44 -0.039,1.535 -0.345,2.657 -2.572,7.589 -5.522,8.133 -2.126,0.394 -3.926,-1.272 -4.095,-3.338 -0.173,-2.112 1.357,-4.224 2.85,-5.558 1.514,-1.353 5.473,-2.674 6.524,-3.009 -0.077,-0.628 -0.161,-1.254 -0.236,-1.881 -0.36,-3.011 -0.705,-6.017 -1.136,-8.956 -0.15,-1.036 -0.337,-2.05 -0.52,-3.065 -0.011,0.676 -0.025,1.244 -0.036,1.33 -0.345,2.657 -2.572,7.589 -5.522,8.135 -2.126,0.392 -3.926,-1.273 -4.096,-3.34 -0.173,-2.11 1.358,-4.225 2.851,-5.557 1.445,-1.291 5.088,-2.544 6.336,-2.948 -0.219,-1.035 -0.436,-2.071 -0.695,-3.064 -0.193,-0.673 -0.33,-1.334 -0.561,-2.001 -0.214,-0.664 -0.427,-1.322 -0.636,-1.972 -0.452,-1.239 -0.909,-2.521 -1.378,-3.718 -0.321,-0.835 -0.642,-1.626 -0.963,-2.422 0.162,1.029 0.437,3.05 0.442,3.222 0.041,1.779 -0.592,4.673 -1.85,6.707 0.008,0.263 -0.007,0.524 -0.049,0.785 -0.329,2.048 -2.252,3.568 -4.342,3.012 -2.899,-0.772 -4.738,-5.862 -4.875,-8.536 -0.008,-0.159 0.095,-1.881 0.178,-2.967 -0.146,0.631 -0.28,1.245 -0.438,1.892 -0.305,1.283 -0.646,2.553 -1.007,3.922 -0.198,0.655 -0.399,1.316 -0.601,1.985 -0.186,0.666 -0.468,1.346 -0.7,2.027 -0.574,1.568 -1.231,3.129 -1.928,4.687 1.122,0.269 5.094,1.281 6.688,2.505 1.588,1.218 3.272,3.211 3.257,5.33 -0.015,2.074 -1.685,3.869 -3.835,3.635 -2.983,-0.324 -5.572,-5.076 -6.113,-7.7 -0.034,-0.164 -0.211,-2.09 -0.287,-3.15 -0.427,0.932 -0.847,1.867 -1.31,2.797 -1.332,2.685 -2.765,5.361 -4.183,8.037 -0.435,0.82 -0.858,1.641 -1.286,2.463 0.401,0.091 5.148,1.192 6.934,2.563 1.587,1.218 3.272,3.211 3.256,5.329 -0.014,2.073 -1.685,3.869 -3.834,3.635 -2.984,-0.324 -5.572,-5.075 -6.113,-7.699 -0.041,-0.199 -0.291,-2.971 -0.32,-3.679 -0.94,1.809 -1.859,3.619 -2.694,5.442 -1.153,2.512 -2.147,5.041 -2.928,7.563 0.187,0.042 5.146,1.17 6.975,2.573 1.588,1.218 3.272,3.211 3.257,5.329 -0.015,2.074 -1.686,3.868 -3.835,3.635 C 11.426,12.387 8.837,7.635 8.296,5.011 8.253,4.805 7.986,1.821 7.976,1.277 7.93,1.428 7.865,1.578 7.821,1.728 c -0.8,2.703 -1.235,5.42 -1.518,7.986 -0.168,1.489 -0.244,2.924 -0.287,4.319 0.945,0.116 5.259,0.69 7.045,1.772 1.712,1.037 3.605,2.833 3.822,4.939 0.213,2.063 -1.251,4.03 -3.412,4.034 C 10.47,24.784 7.375,20.345 6.549,17.797 6.504,17.657 6.203,16.198 6,15.132 c -0.01,0.631 -0.033,1.282 -0.03,1.886 0.005,2.268 0.148,4.346 0.29,6.185 0.089,1.045 0.19,1.988 0.295,2.869 0.868,0.598 4.338,3.047 5.405,4.798 1.042,1.708 1.894,4.175 1.116,6.145 -0.762,1.928 -2.968,3.001 -4.887,2.008 -2.666,-1.377 -3.367,-6.744 -2.926,-9.386 0.038,-0.228 1.045,-3.732 1.091,-3.701 0,0 0.042,0.029 0.052,0.036 C 6.288,25.126 6.173,24.217 6.066,23.222 5.883,21.382 5.694,19.303 5.641,17.024 5.582,14.749 5.582,12.273 5.816,9.667 6.049,7.055 6.426,4.318 7.18,1.549 7.188,1.518 7.201,1.485 7.209,1.454 6.738,2.196 5.348,4.226 5.224,4.369 3.471,6.396 -1.107,9.28 -3.869,8.107 -5.858,7.263 -6.442,4.88 -5.442,3.063 -4.422,1.206 -1.979,0.289 0,0"
             style="fill:#1a2e35;fill-opacity:1;fill-rule:nonzero;stroke:none"
             id="path56" />
        </g>
        <g
           id="g58"
           transform="translate(91.4318,108.9805)">
          <path
             d="M 0,0 C 0.046,-0.029 0.958,3.5 0.99,3.729 1.359,6.383 0.513,11.728 -2.188,13.033 -4.134,13.974 -6.311,12.842 -7.02,10.893 -7.744,8.903 -6.826,6.461 -5.738,4.78 -4.461,2.809 -0.003,0.002 0,0"
             style="fill:#1a2e35;fill-opacity:1;fill-rule:nonzero;stroke:none"
             id="path60" />
        </g>
        <g
           id="g62"
           transform="translate(180.195,76.0752)">
          <path
             d="M 0,0 C 0.994,-0.434 3.425,-0.379 3.427,-0.379 3.452,-0.378 2.904,1.213 2.858,1.309 2.325,2.425 0.638,4.267 -0.734,4.082 -1.723,3.948 -2.273,2.958 -2.05,2.027 -1.822,1.076 -0.847,0.37 0,0"
             style="fill:#1a2e35;fill-opacity:1;fill-rule:nonzero;stroke:none"
             id="path64" />
        </g>
        <g
           id="g66"
           transform="translate(181.0338,69.0342)">
          <path
             d="m 0,0 c 1.031,-0.15 3.201,0.479 3.373,0.529 0.343,-1.214 0.793,-2.432 1.316,-3.64 0.298,-0.692 0.621,-1.378 0.952,-2.062 -0.198,0.289 -0.377,0.547 -0.406,0.581 -0.809,0.936 -2.922,2.267 -4.197,1.725 -0.919,-0.39 -1.187,-1.489 -0.726,-2.328 0.47,-0.857 1.598,-1.281 2.512,-1.413 0.927,-0.136 2.788,0.363 3.279,0.502 0.129,-0.261 0.256,-0.524 0.387,-0.785 0.629,-1.251 1.261,-2.496 1.843,-3.737 0.206,-0.436 0.393,-0.875 0.581,-1.312 -0.176,0.257 -0.327,0.472 -0.353,0.502 -0.809,0.936 -2.922,2.267 -4.197,1.726 -0.919,-0.39 -1.188,-1.489 -0.727,-2.328 0.471,-0.857 1.599,-1.281 2.513,-1.414 0.885,-0.129 2.606,0.316 3.19,0.478 0.179,-0.454 0.359,-0.908 0.513,-1.356 0.097,-0.309 0.212,-0.598 0.293,-0.913 0.087,-0.311 0.172,-0.617 0.257,-0.922 0.142,-0.591 0.292,-1.201 0.416,-1.782 0.09,-0.404 0.167,-0.789 0.247,-1.178 -0.2,0.438 -0.608,1.286 -0.651,1.354 -0.658,1.046 -2.545,2.682 -3.887,2.34 -0.967,-0.246 -1.4,-1.292 -1.07,-2.191 0.335,-0.918 1.385,-1.508 2.269,-1.778 0.972,-0.297 3.125,-0.026 3.394,0.01 0.129,-0.643 0.249,-1.27 0.352,-1.864 0.055,-0.314 0.103,-0.609 0.152,-0.906 h 0.856 c -0.063,0.342 -0.129,0.691 -0.202,1.058 -0.128,0.653 -0.279,1.349 -0.44,2.062 0.162,0.064 1.081,0.437 1.894,0.891 0.709,-0.768 2.526,-1.666 2.761,-1.781 -0.247,-0.607 -0.494,-1.196 -0.735,-1.748 -0.073,-0.168 -0.143,-0.323 -0.214,-0.482 h 0.902 c 0.023,0.055 0.045,0.106 0.068,0.163 0.254,0.616 0.512,1.279 0.772,1.963 0.26,-0.055 2.392,-0.487 3.385,-0.263 0.901,0.203 1.993,0.713 2.396,1.605 0.395,0.871 0.041,1.947 -0.905,2.264 -1.312,0.441 -3.317,-1.049 -4.051,-2.045 -0.043,-0.058 -0.442,-0.748 -0.686,-1.187 0.104,0.28 0.208,0.551 0.312,0.84 0.21,0.571 0.402,1.147 0.612,1.766 0.09,0.303 0.181,0.609 0.274,0.916 0.098,0.305 0.163,0.639 0.247,0.96 0.178,0.75 0.322,1.518 0.451,2.295 0.5,-0.181 2.287,-0.803 3.213,-0.738 0.921,0.064 2.077,0.403 2.611,1.223 0.522,0.801 0.335,1.919 -0.551,2.376 -1.231,0.634 -3.438,-0.537 -4.315,-1.409 -0.054,-0.053 -0.613,-0.751 -0.912,-1.139 0.073,0.468 0.149,0.934 0.208,1.41 0.17,1.373 0.3,2.768 0.436,4.16 0.041,0.426 0.088,0.851 0.132,1.275 0.178,-0.067 2.285,-0.851 3.322,-0.779 0.922,0.065 2.077,0.403 2.611,1.223 0.522,0.802 0.336,1.919 -0.551,2.376 -1.231,0.635 -3.438,-0.535 -4.314,-1.407 -0.066,-0.067 -0.868,-1.07 -1.06,-1.335 0.099,0.935 0.206,1.867 0.349,2.781 0.195,1.261 0.457,2.487 0.798,3.657 0.083,-0.031 2.279,-0.86 3.341,-0.786 0.922,0.065 2.077,0.403 2.611,1.223 C 27.773,2.028 27.587,3.145 26.7,3.602 25.469,4.236 23.263,3.066 22.386,2.194 22.317,2.126 21.455,1.046 21.312,0.838 c 0.021,0.07 0.034,0.144 0.055,0.213 0.381,1.244 0.905,2.401 1.449,3.461 0.315,0.617 0.651,1.188 0.99,1.737 0.393,-0.197 2.2,-1.074 3.163,-1.112 0.923,-0.037 2.109,0.172 2.729,0.927 0.608,0.741 0.545,1.871 -0.286,2.423 C 28.258,9.253 25.937,8.332 24.969,7.562 24.917,7.52 24.429,7.034 24.08,6.676 c 0.156,0.245 0.313,0.501 0.468,0.733 0.579,0.872 1.164,1.636 1.687,2.308 0.3,0.379 0.579,0.717 0.844,1.029 0.486,0.009 2.446,0.068 3.303,0.471 0.835,0.392 1.792,1.125 1.994,2.081 0.198,0.937 -0.378,1.911 -1.37,2.018 -1.377,0.149 -3.014,-1.739 -3.517,-2.869 -0.043,-0.097 -0.548,-1.703 -0.522,-1.702 h 0.029 C 26.735,10.449 26.459,10.129 26.165,9.773 25.626,9.111 25.023,8.358 24.423,7.495 23.821,6.634 23.19,5.682 22.617,4.618 22.041,3.554 21.49,2.403 21.075,1.146 21.07,1.132 21.067,1.116 21.062,1.102 21.069,1.508 21.051,2.643 21.04,2.729 20.881,3.956 19.853,6.232 18.491,6.484 17.51,6.665 16.679,5.896 16.601,4.942 16.521,3.968 17.227,2.993 17.917,2.377 18.693,1.684 20.85,1.012 21.021,0.958 20.637,-0.243 20.34,-1.508 20.11,-2.804 c -0.131,-0.741 -0.242,-1.491 -0.342,-2.245 -0.006,0.351 -0.013,0.664 -0.019,0.708 -0.159,1.227 -1.187,3.503 -2.549,3.755 -0.981,0.182 -1.812,-0.588 -1.89,-1.541 -0.08,-0.975 0.627,-1.95 1.315,-2.565 0.7,-0.624 2.527,-1.235 3.012,-1.39 -0.035,-0.289 -0.074,-0.578 -0.109,-0.868 -0.166,-1.39 -0.325,-2.778 -0.524,-4.134 -0.069,-0.478 -0.156,-0.946 -0.24,-1.414 -0.005,0.311 -0.012,0.573 -0.017,0.613 -0.159,1.227 -1.187,3.503 -2.549,3.755 -0.981,0.181 -1.812,-0.587 -1.89,-1.542 -0.08,-0.974 0.627,-1.949 1.316,-2.564 0.667,-0.596 2.348,-1.174 2.924,-1.362 -0.101,-0.477 -0.201,-0.955 -0.321,-1.414 -0.088,-0.31 -0.152,-0.616 -0.258,-0.924 -0.099,-0.305 -0.198,-0.609 -0.294,-0.91 -0.209,-0.571 -0.42,-1.163 -0.636,-1.716 -0.148,-0.385 -0.297,-0.75 -0.445,-1.118 0.075,0.476 0.202,1.409 0.204,1.488 0.019,0.821 -0.273,2.157 -0.854,3.095 0.004,0.121 -0.003,0.243 -0.022,0.363 -0.152,0.945 -1.04,1.647 -2.005,1.39 -1.337,-0.356 -2.187,-2.706 -2.25,-3.94 -0.003,-0.073 0.044,-0.868 0.083,-1.369 -0.068,0.291 -0.13,0.574 -0.203,0.873 -0.14,0.592 -0.298,1.178 -0.465,1.81 -0.091,0.303 -0.184,0.608 -0.277,0.916 -0.086,0.308 -0.216,0.621 -0.323,0.936 -0.265,0.723 -0.568,1.444 -0.89,2.164 0.518,0.124 2.351,0.591 3.087,1.156 0.733,0.562 1.51,1.483 1.503,2.46 -0.006,0.957 -0.778,1.785 -1.769,1.678 -1.377,-0.15 -2.573,-2.343 -2.823,-3.554 -0.015,-0.076 -0.097,-0.965 -0.132,-1.454 -0.197,0.431 -0.391,0.861 -0.604,1.291 -0.616,1.239 -1.277,2.475 -1.932,3.71 -0.2,0.378 -0.396,0.757 -0.593,1.136 0.185,0.043 2.376,0.551 3.201,1.183 0.733,0.563 1.51,1.483 1.503,2.46 -0.007,0.957 -0.778,1.786 -1.77,1.678 C 7.886,-0.359 6.691,-2.553 6.441,-3.764 6.422,-3.855 6.307,-5.135 6.293,-5.462 5.859,-4.627 5.435,-3.791 5.05,-2.95 4.518,-1.79 4.059,-0.623 3.698,0.541 3.785,0.561 6.074,1.081 6.918,1.729 7.651,2.291 8.428,3.211 8.421,4.188 8.415,5.146 7.643,5.975 6.651,5.867 5.274,5.718 4.08,3.523 3.83,2.313 3.81,2.218 3.687,0.841 3.682,0.59 3.661,0.659 3.631,0.729 3.61,0.797 3.241,2.045 3.04,3.3 2.91,4.483 2.832,5.171 2.797,5.833 2.777,6.478 3.213,6.531 5.205,6.796 6.029,7.295 6.819,7.773 7.693,8.603 7.793,9.575 7.892,10.527 7.216,11.436 6.218,11.438 4.833,11.44 3.405,9.391 3.023,8.215 3.002,8.15 2.863,7.477 2.77,6.984 2.765,7.275 2.755,7.576 2.756,7.855 2.758,8.902 2.824,9.861 2.89,10.71 c 0.041,0.482 0.088,0.918 0.136,1.325 0.401,0.276 2.002,1.406 2.495,2.214 0.481,0.789 0.874,1.927 0.515,2.836 -0.351,0.891 -1.37,1.386 -2.256,0.928 -1.23,-0.636 -1.554,-3.114 -1.351,-4.333 0.018,-0.106 0.483,-1.722 0.504,-1.708 0,0 0.02,0.013 0.024,0.016 C 2.903,11.598 2.85,11.178 2.8,10.719 2.716,9.87 2.628,8.91 2.604,7.858 2.577,6.808 2.577,5.665 2.685,4.462 2.792,3.256 2.966,1.993 3.314,0.715 3.318,0.7 3.324,0.686 3.328,0.671 3.11,1.014 2.469,1.95 2.411,2.017 1.602,2.952 -0.511,4.283 -1.786,3.742 -2.704,3.352 -2.973,2.253 -2.512,1.413 -2.041,0.557 -0.914,0.133 0,0"
             style="fill:#1a2e35;fill-opacity:1;fill-rule:nonzero;stroke:none"
             id="path68" />
        </g>
        <g
           id="g70"
           transform="translate(204.7838,75.541)">
          <path
             d="M 0,0 C 0.021,-0.014 0.442,1.615 0.457,1.722 0.627,2.946 0.237,5.413 -1.01,6.016 -1.909,6.45 -2.913,5.928 -3.24,5.028 -3.575,4.109 -3.151,2.982 -2.649,2.207 -2.06,1.296 -0.002,0.001 0,0"
             style="fill:#1a2e35;fill-opacity:1;fill-rule:nonzero;stroke:none"
             id="path72" />
        </g>
      </g>
    </g>
    <g
       id="g74">
      <g
         id="g76"
         clip-path="url(#clipPath80)">
        <g
           id="g82"
           transform="translate(224.3175,441.7246)">
          <path
             d="m 0,0 c -6.054,-3.539 -8.338,-10.393 -9.434,-13.679 -1.514,-4.543 -6.815,3.029 -17.415,-0.757 -10.6,-3.786 -12.114,-12.115 -14.386,-14.386 -2.271,-2.272 -17.415,-8.329 -17.415,-8.329 H 93.304"
             style="fill:none;stroke:#1a2e35;stroke-width:1;stroke-linecap:round;stroke-linejoin:round;stroke-miterlimit:10;stroke-dasharray:none;stroke-opacity:1"
             id="path84" />
        </g>
        <g
           id="g86"
           transform="translate(325.1925,404.5732)">
          <path
             d="m 0,0 h 18.41 c 0,0 3.029,16.658 -3.785,24.987 -6.815,8.328 -21.958,-3.786 -26.501,8.328 0,0 -13.629,19.687 -30.287,21.202 -16.658,1.514 -23.473,-11.358 -28.773,-18.173 -5.3,-6.814 -8.329,3.029 -21.201,3.029"
             style="fill:none;stroke:#1a2e35;stroke-width:1;stroke-linecap:round;stroke-linejoin:round;stroke-miterlimit:10;stroke-dasharray:none;stroke-opacity:1"
             id="path88" />
        </g>
        <g
           id="g90"
           transform="translate(252.4704,418.0957)">
          <path
             d="M 0,0 C -3.088,-2.875 -3.514,-6.708 -3.514,-6.708"
             style="fill:none;stroke:#1a2e35;stroke-width:1;stroke-linecap:round;stroke-linejoin:round;stroke-miterlimit:10;stroke-dasharray:none;stroke-opacity:1"
             id="path92" />
        </g>
        <g
           id="g94"
           transform="translate(310.2872,431.0742)">
          <path
             d="M 0,0 C 0,0 -10.6,10.601 -22.715,9.843 -34.83,9.086 -30.287,-5.3 -35.587,-9.843 c -5.3,-4.543 -11.357,1.514 -18.172,-0.758"
             style="fill:none;stroke:#1a2e35;stroke-width:1;stroke-linecap:round;stroke-linejoin:round;stroke-miterlimit:10;stroke-dasharray:none;stroke-opacity:1"
             id="path96" />
        </g>
        <g
           id="g98"
           transform="translate(72.4376,394.4346)">
          <path
             d="m 0,0 c -3.955,-2.312 -5.448,-6.79 -6.164,-8.937 -0.989,-2.968 -4.452,1.979 -11.377,-0.495 -6.926,-2.473 -7.915,-7.915 -9.399,-9.399 -1.484,-1.483 -11.378,-5.441 -11.378,-5.441 h 99.276"
             style="fill:none;stroke:#1a2e35;stroke-width:1;stroke-linecap:round;stroke-linejoin:round;stroke-miterlimit:10;stroke-dasharray:none;stroke-opacity:1"
             id="path100" />
        </g>
        <g
           id="g102"
           transform="translate(138.3424,370.1626)">
          <path
             d="m 0,0 h 12.028 c 0,0 1.978,10.883 -2.474,16.325 -4.452,5.441 -14.346,-2.474 -17.313,5.441 0,0 -8.905,12.862 -19.788,13.851 -10.883,0.989 -15.335,-7.42 -18.798,-11.872 -3.463,-4.453 -5.441,1.979 -13.851,1.979"
             style="fill:none;stroke:#1a2e35;stroke-width:1;stroke-linecap:round;stroke-linejoin:round;stroke-miterlimit:10;stroke-dasharray:none;stroke-opacity:1"
             id="path104" />
        </g>
        <g
           id="g106"
           transform="translate(90.8307,378.9971)">
          <path
             d="M 0,0 C -2.018,-1.878 -2.296,-4.382 -2.296,-4.382"
             style="fill:none;stroke:#1a2e35;stroke-width:1;stroke-linecap:round;stroke-linejoin:round;stroke-miterlimit:10;stroke-dasharray:none;stroke-opacity:1"
             id="path108" />
        </g>
        <g
           id="g110"
           transform="translate(128.6041,387.4766)">
          <path
             d="m 0,0 c 0,0 -6.926,6.925 -14.84,6.431 -7.915,-0.495 -4.947,-9.894 -8.41,-12.862 -3.463,-2.968 -7.42,0.989 -11.873,-0.495"
             style="fill:none;stroke:#1a2e35;stroke-width:1;stroke-linecap:round;stroke-linejoin:round;stroke-miterlimit:10;stroke-dasharray:none;stroke-opacity:1"
             id="path112" />
        </g>
        <g
           id="g114"
           transform="translate(274.5797,354.5811)">
          <path
             d="m 0,0 c -2.758,-1.612 -3.799,-4.735 -4.298,-6.232 -0.69,-2.07 -3.104,1.379 -7.934,-0.345 -4.83,-1.725 -5.519,-5.52 -6.554,-6.554 -1.035,-1.036 -7.935,-3.795 -7.935,-3.795 h 69.23"
             style="fill:none;stroke:#1a2e35;stroke-width:1;stroke-linecap:round;stroke-linejoin:round;stroke-miterlimit:10;stroke-dasharray:none;stroke-opacity:1"
             id="path116" />
        </g>
        <g
           id="g118"
           transform="translate(320.5382,337.6548)">
          <path
             d="m 0,0 h 8.388 c 0,0 1.38,7.589 -1.725,11.384 -3.105,3.795 -10.004,-1.725 -12.074,3.795 0,0 -6.209,8.969 -13.798,9.658 -7.59,0.69 -10.694,-5.174 -13.109,-8.278 -2.415,-3.105 -3.795,1.379 -9.659,1.379"
             style="fill:none;stroke:#1a2e35;stroke-width:1;stroke-linecap:round;stroke-linejoin:round;stroke-miterlimit:10;stroke-dasharray:none;stroke-opacity:1"
             id="path120" />
        </g>
        <g
           id="g122"
           transform="translate(287.4059,343.8159)">
          <path
             d="M 0,0 C -1.407,-1.31 -1.601,-3.056 -1.601,-3.056"
             style="fill:none;stroke:#1a2e35;stroke-width:1;stroke-linecap:round;stroke-linejoin:round;stroke-miterlimit:10;stroke-dasharray:none;stroke-opacity:1"
             id="path124" />
        </g>
        <g
           id="g126"
           transform="translate(313.7472,349.7285)">
          <path
             d="m 0,0 c 0,0 -4.829,4.83 -10.349,4.485 -5.519,-0.345 -3.449,-6.9 -5.864,-8.969 -2.415,-2.07 -5.175,0.69 -8.279,-0.345"
             style="fill:none;stroke:#1a2e35;stroke-width:1;stroke-linecap:round;stroke-linejoin:round;stroke-miterlimit:10;stroke-dasharray:none;stroke-opacity:1"
             id="path128" />
        </g>
      </g>
    </g>
    <g
       id="g130"
       transform="translate(77.1867,201.8555)">
      <path
         d="m 0,0 h 26.407 v 73.771 z m 26.407,-64.76 v 41.706 H -24.311 V 1.677 L 19.91,104.999 H 53.652 V 0 H 71.047 V -23.054 H 53.652 V -64.76 Z"
         style="fill:#1a2e35;fill-opacity:1;fill-rule:nonzero;stroke:none"
         id="path132" />
    </g>
    <g
       id="g134"
       transform="translate(77.1867,201.8555)">
      <path
         d="m 0,0 h 26.407 v 73.771 z m 26.407,-64.76 v 41.706 H -24.311 V 1.677 L 19.91,104.999 H 53.652 V 0 H 71.047 V -23.054 H 53.652 V -64.76 Z"
         style="fill:none;stroke:#1a2e35;stroke-width:1;stroke-linecap:round;stroke-linejoin:round;stroke-miterlimit:10;stroke-dasharray:none;stroke-opacity:1"
         id="path136" />
    </g>
    <g
       id="g138">
      <g
         id="g140"
         clip-path="url(#clipPath144)">
        <g
           id="g146"
           transform="translate(207.7536,159.5205)">
          <path
             d="m 0,0 c 4.329,0 7.545,1.327 9.641,3.982 2.095,2.653 3.49,5.869 4.191,9.641 0.698,3.773 1.048,7.473 1.048,11.107 v 74.401 c 0,3.91 -0.315,7.786 -0.943,11.631 -0.629,3.841 -1.991,7.09 -4.087,9.745 -2.095,2.653 -5.38,3.982 -9.85,3.982 -4.473,0 -7.754,-1.329 -9.851,-3.982 -2.095,-2.655 -3.457,-5.904 -4.086,-9.745 -0.629,-3.845 -0.943,-7.721 -0.943,-11.631 V 24.73 c 0,-3.634 0.383,-7.334 1.152,-11.107 0.767,-3.772 2.202,-6.988 4.297,-9.641 C -7.335,1.327 -4.191,0 0,0 m 0,-24.939 c -9.922,0 -18.128,2.096 -24.625,6.287 -6.497,4.192 -11.39,9.987 -14.67,17.395 -3.285,7.403 -4.926,15.928 -4.926,25.568 v 75.238 c 0,9.92 1.572,18.617 4.716,26.093 3.143,7.472 7.964,13.308 14.461,17.5 6.497,4.191 14.843,6.287 25.044,6.287 10.197,0 18.548,-2.096 25.044,-6.287 6.498,-4.192 11.318,-10.028 14.462,-17.5 3.143,-7.476 4.715,-16.173 4.715,-26.093 V 24.311 c 0,-9.64 -1.644,-18.165 -4.925,-25.568 C 36.011,-8.665 31.123,-14.46 24.625,-18.652 18.128,-22.843 9.919,-24.939 0,-24.939"
             style="fill:#1a2e35;fill-opacity:1;fill-rule:nonzero;stroke:none"
             id="path148" />
        </g>
        <g
           id="g150"
           transform="translate(207.7536,159.5205)">
          <path
             d="m 0,0 c 4.329,0 7.545,1.327 9.641,3.982 2.095,2.653 3.49,5.869 4.191,9.641 0.698,3.773 1.048,7.473 1.048,11.107 v 74.401 c 0,3.91 -0.315,7.786 -0.943,11.631 -0.629,3.841 -1.991,7.09 -4.087,9.745 -2.095,2.653 -5.38,3.982 -9.85,3.982 -4.473,0 -7.754,-1.329 -9.851,-3.982 -2.095,-2.655 -3.457,-5.904 -4.086,-9.745 -0.629,-3.845 -0.943,-7.721 -0.943,-11.631 V 24.73 c 0,-3.634 0.383,-7.334 1.152,-11.107 0.767,-3.772 2.202,-6.988 4.297,-9.641 C -7.335,1.327 -4.191,0 0,0 Z m 0,-24.939 c -9.922,0 -18.128,2.096 -24.625,6.287 -6.497,4.192 -11.39,9.987 -14.67,17.395 -3.285,7.403 -4.926,15.928 -4.926,25.568 v 75.238 c 0,9.92 1.572,18.617 4.716,26.093 3.143,7.472 7.964,13.308 14.461,17.5 6.497,4.191 14.843,6.287 25.044,6.287 10.197,0 18.548,-2.096 25.044,-6.287 6.498,-4.192 11.318,-10.028 14.462,-17.5 3.143,-7.476 4.715,-16.173 4.715,-26.093 V 24.311 c 0,-9.64 -1.644,-18.165 -4.925,-25.568 C 36.011,-8.665 31.123,-14.46 24.625,-18.652 18.128,-22.843 9.919,-24.939 0,-24.939 Z"
             style="fill:none;stroke:#1a2e35;stroke-width:1;stroke-linecap:round;stroke-linejoin:round;stroke-miterlimit:10;stroke-dasharray:none;stroke-opacity:1"
             id="path152" />
        </g>
        <g
           id="g154"
           transform="translate(294.7267,201.8555)">
          <path
             d="m 0,0 h 26.408 v 73.771 z m 26.408,-64.76 v 41.706 H -24.31 V 1.677 L 19.911,104.999 H 53.652 V 0 H 71.047 V -23.054 H 53.652 V -64.76 Z"
             style="fill:#1a2e35;fill-opacity:1;fill-rule:nonzero;stroke:none"
             id="path156" />
        </g>
        <g
           id="g158"
           transform="translate(294.7267,201.8555)">
          <path
             d="m 0,0 h 26.408 v 73.771 z m 26.408,-64.76 v 41.706 H -24.31 V 1.677 L 19.911,104.999 H 53.652 V 0 H 71.047 V -23.054 H 53.652 V -64.76 Z"
             style="fill:none;stroke:#1a2e35;stroke-width:1;stroke-linecap:round;stroke-linejoin:round;stroke-miterlimit:10;stroke-dasharray:none;stroke-opacity:1"
             id="path160" />
        </g>
        <g
           id="g162"
           transform="translate(89.8239,201.8555)">
          <path
             d="m 0,0 h 26.407 v 73.771 z m 26.407,-64.76 v 41.706 H -24.311 V 1.677 L 19.91,104.999 H 53.652 V 0 H 71.047 V -23.054 H 53.652 V -64.76 Z"
             style="fill:#ffffff;fill-opacity:1;fill-rule:nonzero;stroke:none"
             id="path164" />
        </g>
        <g
           id="g166"
           transform="translate(89.8239,201.8555)">
          <path
             d="m 0,0 h 26.407 v 73.771 z m 26.407,-64.76 v 41.706 H -24.311 V 1.677 L 19.91,104.999 H 53.652 V 0 H 71.047 V -23.054 H 53.652 V -64.76 Z"
             style="fill:none;stroke:#1a2e35;stroke-width:1;stroke-linecap:round;stroke-linejoin:round;stroke-miterlimit:10;stroke-dasharray:none;stroke-opacity:1"
             id="path168" />
        </g>
        <g
           id="g170"
           transform="translate(220.3903,159.5205)">
          <path
             d="m 0,0 c 4.329,0 7.545,1.327 9.641,3.982 2.095,2.653 3.49,5.869 4.191,9.641 0.698,3.773 1.048,7.473 1.048,11.107 v 74.401 c 0,3.91 -0.314,7.786 -0.943,11.631 -0.629,3.841 -1.991,7.09 -4.087,9.745 -2.095,2.653 -5.38,3.982 -9.85,3.982 -4.473,0 -7.754,-1.329 -9.85,-3.982 -2.096,-2.655 -3.458,-5.904 -4.087,-9.745 -0.629,-3.845 -0.943,-7.721 -0.943,-11.631 V 24.73 c 0,-3.634 0.383,-7.334 1.152,-11.107 0.767,-3.772 2.202,-6.988 4.297,-9.641 C -7.335,1.327 -4.191,0 0,0 m 0,-24.939 c -9.922,0 -18.128,2.096 -24.625,6.287 -6.497,4.192 -11.389,9.987 -14.67,17.395 -3.285,7.403 -4.926,15.928 -4.926,25.568 v 75.238 c 0,9.92 1.572,18.617 4.716,26.093 3.143,7.472 7.964,13.308 14.461,17.5 6.497,4.191 14.843,6.287 25.044,6.287 10.198,0 18.548,-2.096 25.044,-6.287 6.498,-4.192 11.318,-10.028 14.462,-17.5 3.143,-7.476 4.715,-16.173 4.715,-26.093 V 24.311 c 0,-9.64 -1.644,-18.165 -4.925,-25.568 C 36.011,-8.665 31.123,-14.46 24.625,-18.652 18.128,-22.843 9.919,-24.939 0,-24.939"
             style="fill:#ffffff;fill-opacity:1;fill-rule:nonzero;stroke:none"
             id="path172" />
        </g>
        <g
           id="g174"
           transform="translate(220.3903,159.5205)">
          <path
             d="m 0,0 c 4.329,0 7.545,1.327 9.641,3.982 2.095,2.653 3.49,5.869 4.191,9.641 0.698,3.773 1.048,7.473 1.048,11.107 v 74.401 c 0,3.91 -0.314,7.786 -0.943,11.631 -0.629,3.841 -1.991,7.09 -4.087,9.745 -2.095,2.653 -5.38,3.982 -9.85,3.982 -4.473,0 -7.754,-1.329 -9.85,-3.982 -2.096,-2.655 -3.458,-5.904 -4.087,-9.745 -0.629,-3.845 -0.943,-7.721 -0.943,-11.631 V 24.73 c 0,-3.634 0.383,-7.334 1.152,-11.107 0.767,-3.772 2.202,-6.988 4.297,-9.641 C -7.335,1.327 -4.191,0 0,0 Z m 0,-24.939 c -9.922,0 -18.128,2.096 -24.625,6.287 -6.497,4.192 -11.389,9.987 -14.67,17.395 -3.285,7.403 -4.926,15.928 -4.926,25.568 v 75.238 c 0,9.92 1.572,18.617 4.716,26.093 3.143,7.472 7.964,13.308 14.461,17.5 6.497,4.191 14.843,6.287 25.044,6.287 10.198,0 18.548,-2.096 25.044,-6.287 6.498,-4.192 11.318,-10.028 14.462,-17.5 3.143,-7.476 4.715,-16.173 4.715,-26.093 V 24.311 c 0,-9.64 -1.644,-18.165 -4.925,-25.568 C 36.011,-8.665 31.123,-14.46 24.625,-18.652 18.128,-22.843 9.919,-24.939 0,-24.939 Z"
             style="fill:none;stroke:#1a2e35;stroke-width:1;stroke-linecap:round;stroke-linejoin:round;stroke-miterlimit:10;stroke-dasharray:none;stroke-opacity:1"
             id="path176" />
        </g>
        <g
           id="g178"
           transform="translate(307.3634,201.8555)">
          <path
             d="m 0,0 h 26.408 v 73.771 z m 26.408,-64.76 v 41.706 H -24.31 V 1.677 L 19.911,104.999 H 53.652 V 0 H 71.047 V -23.054 H 53.652 V -64.76 Z"
             style="fill:#ffffff;fill-opacity:1;fill-rule:nonzero;stroke:none"
             id="path180" />
        </g>
        <g
           id="g182"
           transform="translate(307.3634,201.8555)">
          <path
             d="m 0,0 h 26.408 v 73.771 z m 26.408,-64.76 v 41.706 H -24.31 V 1.677 L 19.911,104.999 H 53.652 V 0 H 71.047 V -23.054 H 53.652 V -64.76 Z"
             style="fill:none;stroke:#1a2e35;stroke-width:1;stroke-linecap:round;stroke-linejoin:round;stroke-miterlimit:10;stroke-dasharray:none;stroke-opacity:1"
             id="path184" />
        </g>
        <g
           id="g186"
           transform="translate(108.5197,319.5347)">
          <path
             d="M 0,0 C 1.013,0 1.759,0.219 2.238,0.657 2.717,1.095 3.039,1.697 3.203,2.464 3.368,3.23 3.45,4.066 3.45,4.97 v 15.319 c 0,0.93 -0.082,1.766 -0.247,2.505 -0.164,0.74 -0.486,1.321 -0.965,1.746 -0.479,0.424 -1.225,0.636 -2.238,0.636 -0.959,0 -1.684,-0.212 -2.177,-0.636 -0.492,-0.425 -0.821,-1.006 -0.986,-1.746 -0.164,-0.739 -0.246,-1.575 -0.246,-2.505 V 4.97 c 0,-0.904 0.075,-1.74 0.226,-2.506 0.15,-0.767 0.472,-1.369 0.965,-1.807 C -1.725,0.219 -0.986,0 0,0 m 0,-4.477 c -2.355,0 -4.23,0.439 -5.627,1.314 -1.396,0.876 -2.396,2.136 -2.998,3.779 -0.603,1.643 -0.903,3.587 -0.903,5.832 v 12.445 c 0,2.244 0.3,4.168 0.903,5.77 0.602,1.602 1.602,2.827 2.998,3.676 1.397,0.848 3.272,1.273 5.627,1.273 2.409,0 4.305,-0.425 5.688,-1.273 C 7.07,27.49 8.07,26.265 8.686,24.663 9.302,23.061 9.61,21.137 9.61,18.893 V 6.407 C 9.61,4.189 9.302,2.265 8.686,0.637 8.07,-0.993 7.07,-2.252 5.688,-3.142 4.305,-4.031 2.409,-4.477 0,-4.477"
             style="fill:#1a2e35;fill-opacity:1;fill-rule:nonzero;stroke:none"
             id="path188" />
        </g>
        <g
           id="g190"
           transform="translate(131.6417,319.5347)">
          <path
             d="M 0,0 C 1.013,0 1.759,0.219 2.239,0.657 2.717,1.095 3.04,1.697 3.204,2.464 3.368,3.23 3.45,4.066 3.45,4.97 v 15.319 c 0,0.93 -0.082,1.766 -0.246,2.505 -0.164,0.74 -0.487,1.321 -0.965,1.746 -0.48,0.424 -1.226,0.636 -2.239,0.636 -0.958,0 -1.684,-0.212 -2.177,-0.636 -0.492,-0.425 -0.821,-1.006 -0.985,-1.746 -0.165,-0.739 -0.247,-1.575 -0.247,-2.505 V 4.97 c 0,-0.904 0.076,-1.74 0.226,-2.506 C -3.033,1.697 -2.71,1.095 -2.218,0.657 -1.725,0.219 -0.986,0 0,0 m 0,-4.477 c -2.355,0 -4.23,0.439 -5.626,1.314 -1.397,0.876 -2.397,2.136 -2.999,3.779 -0.602,1.643 -0.903,3.587 -0.903,5.832 v 12.445 c 0,2.244 0.301,4.168 0.903,5.77 0.602,1.602 1.602,2.827 2.999,3.676 1.396,0.848 3.271,1.273 5.626,1.273 2.409,0 4.306,-0.425 5.688,-1.273 C 7.071,27.49 8.07,26.265 8.687,24.663 9.303,23.061 9.61,21.137 9.61,18.893 V 6.407 C 9.61,4.189 9.303,2.265 8.687,0.637 8.07,-0.993 7.071,-2.252 5.688,-3.142 4.306,-4.031 2.409,-4.477 0,-4.477"
             style="fill:#1a2e35;fill-opacity:1;fill-rule:nonzero;stroke:none"
             id="path192" />
        </g>
        <g
           id="g194"
           transform="translate(151.8068,334.5664)">
          <path
             d="M 0,0 H 2.3 C 3.395,0 4.251,0.157 4.867,0.472 5.483,0.787 5.907,1.293 6.141,1.992 6.373,2.69 6.49,3.628 6.49,4.806 6.49,6.01 6.4,6.989 6.223,7.742 6.044,8.495 5.661,9.049 5.073,9.405 4.483,9.761 3.559,9.939 2.3,9.939 H 0 Z M -6.078,-19.057 V 14.21 h 9.775 c 1.998,0 3.62,-0.369 4.866,-1.108 1.246,-0.74 2.164,-1.814 2.752,-3.224 0.589,-1.411 0.883,-3.115 0.883,-5.114 0,-2.163 -0.369,-3.909 -1.109,-5.236 C 10.35,-1.801 9.316,-2.766 7.988,-3.368 6.66,-3.97 5.093,-4.271 3.286,-4.271 H 0 v -14.786 z"
             style="fill:#1a2e35;fill-opacity:1;fill-rule:nonzero;stroke:none"
             id="path196" />
        </g>
        <g
           id="g198"
           transform="translate(175.5871,315.0581)">
          <path
             d="M 0,0 C -2,0 -3.67,0.39 -5.011,1.17 -6.353,1.951 -7.366,3.094 -8.05,4.6 -8.735,6.105 -9.118,7.954 -9.2,10.144 l 5.216,1.027 c 0.054,-1.287 0.212,-2.423 0.472,-3.409 0.26,-0.985 0.657,-1.745 1.191,-2.279 0.534,-0.534 1.239,-0.801 2.115,-0.801 0.986,0 1.685,0.294 2.095,0.883 0.411,0.589 0.616,1.335 0.616,2.238 0,1.451 -0.329,2.642 -0.986,3.573 -0.657,0.931 -1.533,1.862 -2.628,2.793 l -4.189,3.697 c -1.178,1.012 -2.116,2.142 -2.814,3.388 -0.698,1.246 -1.047,2.786 -1.047,4.621 0,2.628 0.766,4.654 2.3,6.078 1.533,1.423 3.628,2.135 6.284,2.135 1.56,0 2.861,-0.239 3.902,-0.718 1.04,-0.479 1.868,-1.144 2.484,-1.992 C 6.427,30.529 6.886,29.564 7.187,28.482 7.488,27.4 7.68,26.257 7.762,25.053 L 2.587,24.149 c -0.055,1.041 -0.171,1.972 -0.349,2.793 -0.178,0.822 -0.493,1.465 -0.945,1.931 -0.452,0.465 -1.115,0.698 -1.992,0.698 -0.903,0 -1.594,-0.295 -2.073,-0.883 -0.48,-0.589 -0.719,-1.322 -0.719,-2.197 0,-1.123 0.232,-2.048 0.698,-2.773 0.465,-0.726 1.136,-1.472 2.012,-2.239 L 3.367,17.825 C 4.736,16.674 5.907,15.326 6.879,13.779 7.851,12.232 8.337,10.363 8.337,8.173 8.337,6.585 7.988,5.175 7.29,3.943 6.592,2.711 5.619,1.746 4.374,1.047 3.127,0.349 1.669,0 0,0"
             style="fill:#1a2e35;fill-opacity:1;fill-rule:nonzero;stroke:none"
             id="path200" />
        </g>
        <g
           id="g202"
           transform="translate(188.3595,323.3135)">
          <path
             d="M 0,0 -1.684,25.423 H 3.902 L 1.93,0 Z m -1.725,-2.382 h 5.421 v -5.421 h -5.421 z"
             style="fill:#1a2e35;fill-opacity:1;fill-rule:nonzero;stroke:none"
             id="path204" />
        </g>
      </g>
    </g>
    <g
       id="g206">
      <g
         id="g208"
         clip-path="url(#clipPath212)">
        <g
           id="g214"
           transform="translate(336.1906,116.499)">
          <path
             d="m 0,0 v -7.149 h 3.725 v 4.194 c 0,1.839 1.491,3.33 3.33,3.33 h 12.224 c 1.839,0 3.33,-1.491 3.33,-3.33 v -4.194 h 3.726 V 0 c 0,1.84 -1.491,3.331 -3.33,3.331 H 3.33 C 1.49,3.331 0,1.84 0,0"
             style="fill:#1a2e35;fill-opacity:1;fill-rule:nonzero;stroke:none"
             id="path216" />
        </g>
        <g
           id="g218"
           transform="translate(336.1906,116.499)">
          <path
             d="m 0,0 v -7.149 h 3.725 v 4.194 c 0,1.839 1.491,3.33 3.33,3.33 h 12.224 c 1.839,0 3.33,-1.491 3.33,-3.33 v -4.194 h 3.726 V 0 c 0,1.84 -1.491,3.331 -3.33,3.331 H 3.33 C 1.49,3.331 0,1.84 0,0 Z"
             style="fill:none;stroke:#1a2e35;stroke-width:1;stroke-linecap:round;stroke-linejoin:round;stroke-miterlimit:10;stroke-dasharray:none;stroke-opacity:1"
             id="path220" />
        </g>
        <g
           id="g222"
           transform="translate(375.4572,111.2979)">
          <path
             d="m 0,0 h -70.54 c -2.597,0 -4.702,-2.105 -4.702,-4.702 v -56.696 c 0,-1.672 1.355,-3.028 3.027,-3.028 h 73.89 c 1.672,0 3.026,1.356 3.026,3.028 V -4.702 C 4.701,-2.105 2.597,0 0,0"
             style="fill:#1a2e35;fill-opacity:1;fill-rule:nonzero;stroke:none"
             id="path224" />
        </g>
        <g
           id="g226"
           transform="translate(375.4572,111.2979)">
          <path
             d="m 0,0 h -70.54 c -2.597,0 -4.702,-2.105 -4.702,-4.702 v -56.696 c 0,-1.672 1.355,-3.028 3.027,-3.028 h 73.89 c 1.672,0 3.026,1.356 3.026,3.028 V -4.702 C 4.701,-2.105 2.597,0 0,0 Z"
             style="fill:none;stroke:#1a2e35;stroke-width:1;stroke-linecap:round;stroke-linejoin:round;stroke-miterlimit:10;stroke-dasharray:none;stroke-opacity:1"
             id="path228" />
        </g>
        <g
           id="g230"
           transform="translate(385.2335,111.2979)">
          <path
             d="m 0,0 h -70.54 c -2.597,0 -4.702,-2.105 -4.702,-4.702 v -56.696 c 0,-1.672 1.355,-3.028 3.027,-3.028 h 73.89 c 1.672,0 3.027,1.356 3.027,3.028 V -4.702 C 4.702,-2.105 2.597,0 0,0"
             style="fill:#8b8b8b;fill-opacity:1;fill-rule:nonzero;stroke:none"
             id="path232" />
        </g>
        <g
           id="g234"
           transform="translate(385.2335,111.2979)">
          <path
             d="m 0,0 h -70.54 c -2.597,0 -4.702,-2.105 -4.702,-4.702 v -56.696 c 0,-1.672 1.355,-3.028 3.027,-3.028 h 73.89 c 1.672,0 3.027,1.356 3.027,3.028 V -4.702 C 4.702,-2.105 2.597,0 0,0 Z"
             style="fill:none;stroke:#1a2e35;stroke-width:1;stroke-linecap:round;stroke-linejoin:round;stroke-miterlimit:10;stroke-dasharray:none;stroke-opacity:1"
             id="path236" />
        </g>
      </g>
    </g>
    <g
       id="g238">
      <g
         id="g240"
         clip-path="url(#clipPath244)">
        <g
           id="g246"
           transform="translate(410.0011,237.8398)">
          <path
             d="m 0,0 c 0,0 -20.105,-60.397 -21.843,-71.33 -1.737,-10.933 -0.619,-24.508 0.426,-31.376 1.045,-6.867 11.75,-66.18 11.75,-66.18 0,0 -2.65,0.895 -2.844,-1.022 -0.194,-1.917 0.474,-10.029 0.474,-10.029 0,0 -2.777,-3.889 -10.088,-8.125 -7.311,-4.234 -10.866,-5.512 -8.683,-6.895 2.184,-1.384 11.518,-1.882 15.329,-1.314 3.811,0.567 14.062,1.763 15.728,2.042 1.667,0.277 6.712,-0.799 8.317,2.106 1.605,2.906 0.443,11.724 0.848,14.84 0.404,3.117 -1.863,8.084 -1.88,8.801 -0.016,0.716 -2.019,67.753 -2.019,67.753 l 1.266,16.65 c 0,0 -0.373,-15.856 1.451,-17.624 1.825,-1.768 20.842,-67.948 20.842,-67.948 l -1.844,-2.911 2.301,-6.401 -1.815,-4.106 c 0,0 -8.655,-8.091 -12.194,-10.086 -3.539,-1.995 -7.111,-2.557 -5.161,-4.184 1.951,-1.628 21.052,-0.702 21.052,-0.702 l 19.983,4.054 c 0,0 3.028,3.417 2.483,6.272 -0.545,2.856 -3.175,13.072 -3.175,13.072 0,0 0.643,13.402 -0.086,13.863 -0.727,0.461 -4.429,5.393 -4.712,7.3 -0.284,1.905 -2.361,39.338 -4.558,45.631 -2.197,6.294 -4.925,16.14 -4.925,16.14 0,0 1.549,1.566 1.65,3.253 0.101,1.686 -0.392,4.763 -0.392,4.763 0,0 20.866,54.3 21.822,57.407 0.956,3.106 5.258,19.834 5.258,26.525 0,6.691 -0.479,11.709 -0.479,11.709 0,0 -16.25,-7.408 -32.738,-8.125 C 15.056,3.106 0.479,4.062 0.479,4.062 Z"
             style="fill:#1a2e35;fill-opacity:1;fill-rule:nonzero;stroke:none"
             id="path248" />
        </g>
        <g
           id="g250"
           transform="translate(410.0011,237.8398)">
          <path
             d="m 0,0 c 0,0 -20.105,-60.397 -21.843,-71.33 -1.737,-10.933 -0.619,-24.508 0.426,-31.376 1.045,-6.867 11.75,-66.18 11.75,-66.18 0,0 -2.65,0.895 -2.844,-1.022 -0.194,-1.917 0.474,-10.029 0.474,-10.029 0,0 -2.777,-3.889 -10.088,-8.125 -7.311,-4.234 -10.866,-5.512 -8.683,-6.895 2.184,-1.384 11.518,-1.882 15.329,-1.314 3.811,0.567 14.062,1.763 15.728,2.042 1.667,0.277 6.712,-0.799 8.317,2.106 1.605,2.906 0.443,11.724 0.848,14.84 0.404,3.117 -1.863,8.084 -1.88,8.801 -0.016,0.716 -2.019,67.753 -2.019,67.753 l 1.266,16.65 c 0,0 -0.373,-15.856 1.451,-17.624 1.825,-1.768 20.842,-67.948 20.842,-67.948 l -1.844,-2.911 2.301,-6.401 -1.815,-4.106 c 0,0 -8.655,-8.091 -12.194,-10.086 -3.539,-1.995 -7.111,-2.557 -5.161,-4.184 1.951,-1.628 21.052,-0.702 21.052,-0.702 l 19.983,4.054 c 0,0 3.028,3.417 2.483,6.272 -0.545,2.856 -3.175,13.072 -3.175,13.072 0,0 0.643,13.402 -0.086,13.863 -0.727,0.461 -4.429,5.393 -4.712,7.3 -0.284,1.905 -2.361,39.338 -4.558,45.631 -2.197,6.294 -4.925,16.14 -4.925,16.14 0,0 1.549,1.566 1.65,3.253 0.101,1.686 -0.392,4.763 -0.392,4.763 0,0 20.866,54.3 21.822,57.407 0.956,3.106 5.258,19.834 5.258,26.525 0,6.691 -0.479,11.709 -0.479,11.709 0,0 -16.25,-7.408 -32.738,-8.125 C 15.056,3.106 0.479,4.062 0.479,4.062 Z"
             style="fill:none;stroke:#1a2e35;stroke-width:1;stroke-linecap:round;stroke-linejoin:round;stroke-miterlimit:10;stroke-dasharray:none;stroke-opacity:1"
             id="path252" />
        </g>
        <g
           id="g254"
           transform="translate(459.9454,235.6895)">
          <path
             d="M 0,0 C 0,0 0,-16.25 8.125,-19.356"
             style="fill:none;stroke:#ffffff;stroke-width:1;stroke-linecap:round;stroke-linejoin:round;stroke-miterlimit:10;stroke-dasharray:none;stroke-opacity:1"
             id="path256" />
        </g>
        <g
           id="g258"
           transform="translate(471.6544,240.4687)">
          <path
             d="M 0,0 C 0,0 0.479,-10.993 -1.673,-20.79"
             style="fill:none;stroke:#ffffff;stroke-width:1;stroke-linecap:round;stroke-linejoin:round;stroke-miterlimit:10;stroke-dasharray:none;stroke-opacity:1"
             id="path260" />
        </g>
        <g
           id="g262"
           transform="translate(456.0714,190.6611)">
          <path
             d="M 0,0 C -2.227,-4.739 -3.932,-8.418 -4.012,-8.739"
             style="fill:none;stroke:#ffffff;stroke-width:1;stroke-linecap:round;stroke-linejoin:round;stroke-miterlimit:10;stroke-dasharray:none;stroke-opacity:1"
             id="path264" />
        </g>
        <g
           id="g266"
           transform="translate(466.8751,213.4648)">
          <path
             d="M 0,0 C 0,0 -5.213,-10.938 -9.454,-19.937"
             style="fill:none;stroke:#ffffff;stroke-width:1;stroke-linecap:round;stroke-linejoin:round;stroke-miterlimit:10;stroke-dasharray:none;stroke-opacity:1"
             id="path268" />
        </g>
        <g
           id="g270"
           transform="translate(418.8644,168.7051)">
          <path
             d="m 0,0 8.82,37.83 -9.319,8.125"
             style="fill:none;stroke:#ffffff;stroke-width:1;stroke-linecap:round;stroke-linejoin:round;stroke-miterlimit:10;stroke-dasharray:none;stroke-opacity:1"
             id="path272" />
        </g>
        <g
           id="g274"
           transform="translate(416.9484,160.4883)">
          <path
             d="M 0,0 0.916,3.928"
             style="fill:none;stroke:#ffffff;stroke-width:1;stroke-linecap:round;stroke-linejoin:round;stroke-miterlimit:10;stroke-dasharray:none;stroke-opacity:1"
             id="path276" />
        </g>
        <g
           id="g278"
           transform="translate(371.0714,324.4033)">
          <path
             d="m 0,0 -23.931,-10.421 c 0,0 14.282,29.72 14.861,31.457 0.579,1.737 -7.912,16.404 -7.72,16.983 0.193,0.579 7.527,9.457 7.72,11.386 0.193,1.93 4.246,8.685 1.158,9.071 -3.088,0.386 -19.492,-14.86 -19.878,-18.72 -0.386,-3.86 7.334,-16.983 8.105,-18.141 0.773,-1.158 -39.755,-44.581 -40.527,-51.528 -0.772,-6.948 2.509,-11.387 8.298,-12.159 5.79,-0.772 51.336,14.861 58.283,16.79 6.947,1.93 9.264,-1.157 9.264,-1.157 0,0 21.807,-26.44 23.351,-29.721 1.544,-3.281 0.772,-15.439 -0.964,-19.106 -1.738,-3.667 -3.667,-10.035 -2.703,-11.001 0.965,-0.964 1.674,-2.153 4.569,-2.925 2.894,-0.772 23.029,-3.249 34.416,-1.513 11.386,1.737 24.895,7.72 27.983,10.035 3.088,2.316 3.474,5.019 3.474,8.492 0,3.474 -2.317,6.562 -3.861,10.035 -1.544,3.474 -11.771,35.317 -16.017,45.546 -4.246,10.228 -2.895,17.948 -18.913,27.018 -16.019,9.071 -34.807,7.168 -34.807,7.168 z"
             style="fill:#5ae4a7;fill-opacity:1;fill-rule:nonzero;stroke:none"
             id="path280" />
        </g>
        <g
           id="g282"
           transform="translate(371.0714,324.4033)">
          <path
             d="m 0,0 -23.931,-10.421 c 0,0 14.282,29.72 14.861,31.457 0.579,1.737 -7.912,16.404 -7.72,16.983 0.193,0.579 7.527,9.457 7.72,11.386 0.193,1.93 4.246,8.685 1.158,9.071 -3.088,0.386 -19.492,-14.86 -19.878,-18.72 -0.386,-3.86 7.334,-16.983 8.105,-18.141 0.773,-1.158 -39.755,-44.581 -40.527,-51.528 -0.772,-6.948 2.509,-11.387 8.298,-12.159 5.79,-0.772 51.336,14.861 58.283,16.79 6.947,1.93 9.264,-1.157 9.264,-1.157 0,0 21.807,-26.44 23.351,-29.721 1.544,-3.281 0.772,-15.439 -0.964,-19.106 -1.738,-3.667 -3.667,-10.035 -2.703,-11.001 0.965,-0.964 1.674,-2.153 4.569,-2.925 2.894,-0.772 23.029,-3.249 34.416,-1.513 11.386,1.737 24.895,7.72 27.983,10.035 3.088,2.316 3.474,5.019 3.474,8.492 0,3.474 -2.317,6.562 -3.861,10.035 -1.544,3.474 -11.771,35.317 -16.017,45.546 -4.246,10.228 -2.895,17.948 -18.913,27.018 -16.019,9.071 -34.807,7.168 -34.807,7.168 z"
             style="fill:none;stroke:#1a2e35;stroke-width:1;stroke-linecap:round;stroke-linejoin:round;stroke-miterlimit:10;stroke-dasharray:none;stroke-opacity:1"
             id="path284" />
        </g>
        <g
           id="g286"
           transform="translate(346.1818,299.4272)">
          <path
             d="M 0,0 -0.198,-3.007"
             style="fill:none;stroke:#1a2e35;stroke-width:1;stroke-linecap:round;stroke-linejoin:round;stroke-miterlimit:10;stroke-dasharray:none;stroke-opacity:1"
             id="path288" />
        </g>
        <g
           id="g290"
           transform="translate(340.9659,294.6831)">
          <path
             d="M 0,0 6.175,19.299 5.365,7.014"
             style="fill:none;stroke:#1a2e35;stroke-width:1;stroke-linecap:round;stroke-linejoin:round;stroke-miterlimit:10;stroke-dasharray:none;stroke-opacity:1"
             id="path292" />
        </g>
        <g
           id="g294"
           transform="translate(340.3868,331.1582)">
          <path
             d="M 0,0 C 0,0 0.965,-7.334 10.421,-7.72"
             style="fill:none;stroke:#1a2e35;stroke-width:1;stroke-linecap:round;stroke-linejoin:round;stroke-miterlimit:10;stroke-dasharray:none;stroke-opacity:1"
             id="path296" />
        </g>
        <g
           id="g298"
           transform="translate(384.5812,299.7007)">
          <path
             d="M 0,0 C 0,0 -6.947,4.632 -14.088,6.948"
             style="fill:#ffffff;fill-opacity:1;fill-rule:nonzero;stroke:#1a2e35;stroke-width:1;stroke-linecap:round;stroke-linejoin:round;stroke-miterlimit:10;stroke-dasharray:none;stroke-opacity:1"
             id="path300" />
        </g>
        <g
           id="g302"
           transform="translate(368.3868,304.1611)">
          <path
             d="M 0,0 C -0.771,0.13 -1.551,0.252 -2.333,0.364"
             style="fill:none;stroke:#1a2e35;stroke-width:1;stroke-linecap:round;stroke-linejoin:round;stroke-miterlimit:10;stroke-dasharray:none;stroke-opacity:1"
             id="path304" />
        </g>
        <g
           id="g306"
           transform="translate(382.0724,301.0518)">
          <path
             d="M 0,0 C 0,0 -4.92,1.44 -10.974,2.616"
             style="fill:none;stroke:#1a2e35;stroke-width:1;stroke-linecap:round;stroke-linejoin:round;stroke-miterlimit:10;stroke-dasharray:none;stroke-opacity:1"
             id="path308" />
        </g>
        <g
           id="g310"
           transform="translate(417.4523,261.6323)">
          <path
             d="M 0,0 C 0.679,-0.559 1.162,-0.916 1.288,-0.916"
             style="fill:none;stroke:#1a2e35;stroke-width:1;stroke-linecap:round;stroke-linejoin:round;stroke-miterlimit:10;stroke-dasharray:none;stroke-opacity:1"
             id="path312" />
        </g>
        <g
           id="g314"
           transform="translate(410.0558,268.2437)">
          <path
             d="M 0,0 C 0,0 3.403,-3.161 5.957,-5.386"
             style="fill:none;stroke:#1a2e35;stroke-width:1;stroke-linecap:round;stroke-linejoin:round;stroke-miterlimit:10;stroke-dasharray:none;stroke-opacity:1"
             id="path316" />
        </g>
        <g
           id="g318"
           transform="translate(451.7413,234.8564)">
          <path
             d="M 0,0 17.176,10.808"
             style="fill:none;stroke:#1a2e35;stroke-width:1;stroke-linecap:round;stroke-linejoin:round;stroke-miterlimit:10;stroke-dasharray:none;stroke-opacity:1"
             id="path320" />
        </g>
        <g
           id="g322"
           transform="translate(461.5245,276.9893)">
          <path
             d="M 0,0 C -1.937,-7.845 -5.693,-21.208 -10.169,-27.659"
             style="fill:none;stroke:#1a2e35;stroke-width:1;stroke-linecap:round;stroke-linejoin:round;stroke-miterlimit:10;stroke-dasharray:none;stroke-opacity:1"
             id="path324" />
        </g>
        <g
           id="g326"
           transform="translate(462.9347,283.1035)">
          <path
             d="M 0,0 C 0,0 -0.244,-1.184 -0.695,-3.13"
             style="fill:none;stroke:#1a2e35;stroke-width:1;stroke-linecap:round;stroke-linejoin:round;stroke-miterlimit:10;stroke-dasharray:none;stroke-opacity:1"
             id="path328" />
        </g>
        <g
           id="g330"
           transform="translate(462.9347,272.875)">
          <path
             d="M 0,0 C 0,0 -3.667,-16.018 -6.562,-20.457"
             style="fill:none;stroke:#1a2e35;stroke-width:1;stroke-linecap:round;stroke-linejoin:round;stroke-miterlimit:10;stroke-dasharray:none;stroke-opacity:1"
             id="path332" />
        </g>
        <g
           id="g334"
           transform="translate(357.1964,335.0415)">
          <path
             d="m 0,0 c 2.525,5.335 4.592,9.759 4.805,10.397 0.579,1.738 -7.912,16.405 -7.72,16.984 0.193,0.578 7.527,9.456 7.72,11.386 0.193,1.93 4.246,8.685 1.158,9.07 C 2.875,48.224 -13.529,32.978 -13.915,29.118 -14.301,25.258 -6.581,12.135 -5.81,10.977 -5.646,10.732 -7.331,8.596 -10.091,5.32 -9.018,2.7 -6.393,-0.62 0,0"
             style="fill:#ffffff;fill-opacity:1;fill-rule:nonzero;stroke:none"
             id="path336" />
        </g>
        <g
           id="g338"
           transform="translate(357.1964,335.0415)">
          <path
             d="m 0,0 c 2.525,5.335 4.592,9.759 4.805,10.397 0.579,1.738 -7.912,16.405 -7.72,16.984 0.193,0.578 7.527,9.456 7.72,11.386 0.193,1.93 4.246,8.685 1.158,9.07 C 2.875,48.224 -13.529,32.978 -13.915,29.118 -14.301,25.258 -6.581,12.135 -5.81,10.977 -5.646,10.732 -7.331,8.596 -10.091,5.32 -9.018,2.7 -6.393,-0.62 0,0 Z"
             style="fill:none;stroke:#1a2e35;stroke-width:1;stroke-linecap:round;stroke-linejoin:round;stroke-miterlimit:10;stroke-dasharray:none;stroke-opacity:1"
             id="path340" />
        </g>
        <g
           id="g342"
           transform="translate(353.8351,372.7627)">
          <path
             d="M 0,0 C 0,0 -4.838,-9.372 -4.66,-10.084"
             style="fill:none;stroke:#1a2e35;stroke-width:1;stroke-linecap:round;stroke-linejoin:round;stroke-miterlimit:10;stroke-dasharray:none;stroke-opacity:1"
             id="path344" />
        </g>
        <g
           id="g346"
           transform="translate(350.2433,372.6465)">
          <path
             d="M 0,0 C 0,0 -5.518,-7.832 -5.162,-9.078"
             style="fill:none;stroke:#1a2e35;stroke-width:1;stroke-linecap:round;stroke-linejoin:round;stroke-miterlimit:10;stroke-dasharray:none;stroke-opacity:1"
             id="path348" />
        </g>
        <g
           id="g350"
           transform="translate(391.7218,302.5957)">
          <path
             d="M 0,0 7.72,-15.632 11.387,-15.825 14.475,1.737 11.965,5.79 10.229,-5.211 5.597,-5.018 0.193,3.088 Z"
             style="fill:#8b8b8b;fill-opacity:1;fill-rule:nonzero;stroke:none"
             id="path352" />
        </g>
        <g
           id="g354"
           transform="translate(391.7218,302.5957)">
          <path
             d="M 0,0 7.72,-15.632 11.387,-15.825 14.475,1.737 11.965,5.79 10.229,-5.211 5.597,-5.018 0.193,3.088 Z"
             style="fill:none;stroke:#1a2e35;stroke-width:1;stroke-linecap:round;stroke-linejoin:round;stroke-miterlimit:10;stroke-dasharray:none;stroke-opacity:1"
             id="path356" />
        </g>
        <g
           id="g358"
           transform="translate(399.4415,286.9634)">
          <path
             d="M 0,0 -6.397,-46.589 1.001,-62.151 8.926,-45.98 3.667,-0.193 Z"
             style="fill:#8b8b8b;fill-opacity:1;fill-rule:nonzero;stroke:none"
             id="path360" />
        </g>
        <g
           id="g362"
           transform="translate(399.4415,286.9634)">
          <path
             d="M 0,0 -6.397,-46.589 1.001,-62.151 8.926,-45.98 3.667,-0.193 Z"
             style="fill:none;stroke:#1a2e35;stroke-width:1;stroke-linecap:round;stroke-linejoin:round;stroke-miterlimit:10;stroke-dasharray:none;stroke-opacity:1"
             id="path364" />
        </g>
        <g
           id="g366"
           transform="translate(398.2931,289.2876)">
          <path
             d="M 0,0 5.92,3.768 7.754,14.197 4.27,11.979 3.657,8.097 -0.975,8.291 -1.139,8.536 -3.479,7.046 Z"
             style="fill:#1a2e35;fill-opacity:1;fill-rule:nonzero;stroke:none"
             id="path368" />
        </g>
        <g
           id="g370"
           transform="translate(403.1085,286.7705)">
          <path
             d="M 0,0 0.009,0.052 -0.067,0.003 Z"
             style="fill:#1a2e35;fill-opacity:1;fill-rule:nonzero;stroke:none"
             id="path372" />
        </g>
        <g
           id="g374"
           transform="translate(404.6866,273.0254)">
          <path
             d="M 0,0 -7.845,-4.995 -9.238,-15.142 0.991,-8.629 Z"
             style="fill:#1a2e35;fill-opacity:1;fill-rule:nonzero;stroke:none"
             id="path376" />
        </g>
        <g
           id="g378"
           transform="translate(404.0948,278.1841)">
          <path
             d="M 0,0 -0.986,8.586 -1.054,8.59 -5.027,6.061 -6.42,-4.087 Z"
             style="fill:#1a2e35;fill-opacity:1;fill-rule:nonzero;stroke:none"
             id="path380" />
        </g>
        <g
           id="g382"
           transform="translate(406.2706,259.2378)">
          <path
             d="m 0,0 -11.655,-7.42 -1.394,-10.148 14.04,8.938 z"
             style="fill:#1a2e35;fill-opacity:1;fill-rule:nonzero;stroke:none"
             id="path384" />
        </g>
        <g
           id="g386"
           transform="translate(405.1847,234.4893)">
          <path
             d="M 0,0 3.183,6.494 2.67,10.96 -10.552,2.543 l 3.38,-7.108 z"
             style="fill:#1a2e35;fill-opacity:1;fill-rule:nonzero;stroke:none"
             id="path388" />
        </g>
        <g
           id="g390"
           transform="translate(386.3185,320.5435)">
          <path
             d="m 0,0 c 0,0 -1.544,-9.457 -1.352,-13.702 0.194,-4.246 2.317,-11.773 2.317,-11.773 l 9.456,10.808 15.825,-9.843 c 0,0 -0.579,20.072 -0.579,20.65 0,0.579 -3.667,22.194 -4.824,24.317 -1.158,2.123 -4.246,3.281 -5.984,2.895 C 13.123,22.966 0,0 0,0"
             style="fill:#5ae4a7;fill-opacity:1;fill-rule:nonzero;stroke:none"
             id="path392" />
        </g>
        <g
           id="g394"
           transform="translate(386.3185,320.5435)">
          <path
             d="m 0,0 c 0,0 -1.544,-9.457 -1.352,-13.702 0.194,-4.246 2.317,-11.773 2.317,-11.773 l 9.456,10.808 15.825,-9.843 c 0,0 -0.579,20.072 -0.579,20.65 0,0.579 -3.667,22.194 -4.824,24.317 -1.158,2.123 -4.246,3.281 -5.984,2.895 C 13.123,22.966 0,0 0,0 Z"
             style="fill:none;stroke:#1a2e35;stroke-width:1;stroke-linecap:round;stroke-linejoin:round;stroke-miterlimit:10;stroke-dasharray:none;stroke-opacity:1"
             id="path396" />
        </g>
        <g
           id="g398"
           transform="translate(359.6564,373.2617)">
          <path
             d="m 0,0 c 0,0 -0.499,-14.138 -0.167,-19.792 0.333,-5.656 -0.499,-10.146 0.998,-14.803 1.497,-4.657 3.16,-13.639 4.657,-16.633 1.497,-2.993 4.658,-5.821 9.315,-5.821 4.657,0 9.812,3.825 12.307,6.32 2.495,2.495 6.82,5.988 9.148,10.479 2.329,4.491 0.333,15.8 0.666,18.96 0.332,3.161 0.998,8.649 0.998,8.649 0,0 3.326,8.15 0.665,11.975 C 35.926,3.16 24.116,7.484 15.135,6.653 6.153,5.821 0,0 0,0"
             style="fill:#ffffff;fill-opacity:1;fill-rule:nonzero;stroke:none"
             id="path400" />
        </g>
        <g
           id="g402"
           transform="translate(359.6564,373.2617)">
          <path
             d="m 0,0 c 0,0 -0.499,-14.138 -0.167,-19.792 0.333,-5.656 -0.499,-10.146 0.998,-14.803 1.497,-4.657 3.16,-13.639 4.657,-16.633 1.497,-2.993 4.658,-5.821 9.315,-5.821 4.657,0 9.812,3.825 12.307,6.32 2.495,2.495 6.82,5.988 9.148,10.479 2.329,4.491 0.333,15.8 0.666,18.96 0.332,3.161 0.998,8.649 0.998,8.649 0,0 3.326,8.15 0.665,11.975 C 35.926,3.16 24.116,7.484 15.135,6.653 6.153,5.821 0,0 0,0 Z"
             style="fill:none;stroke:#1a2e35;stroke-width:1;stroke-linecap:round;stroke-linejoin:round;stroke-miterlimit:10;stroke-dasharray:none;stroke-opacity:1"
             id="path404" />
        </g>
        <g
           id="g406"
           transform="translate(367.4728,357.2949)">
          <path
             d="m 0,0 1.331,-4.99 c 0,0 -3.992,-11.643 -2.994,-12.308 0.998,-0.665 9.148,0.166 9.148,0.166"
             style="fill:none;stroke:#1a2e35;stroke-width:1;stroke-linecap:round;stroke-linejoin:round;stroke-miterlimit:10;stroke-dasharray:none;stroke-opacity:1"
             id="path408" />
        </g>
        <g
           id="g410"
           transform="translate(373.9601,362.4507)">
          <path
             d="M 0,0 C 0,0 -0.167,-1.83 0.499,-2.162 1.164,-2.495 7.65,-4.99 8.648,-4.657 9.646,-4.324 8.315,-2.994 7.484,-2.661 6.652,-2.329 -0.333,1.497 0,0"
             style="fill:#1a2e35;fill-opacity:1;fill-rule:nonzero;stroke:none"
             id="path412" />
        </g>
        <g
           id="g414"
           transform="translate(373.9601,362.4507)">
          <path
             d="M 0,0 C 0,0 -0.167,-1.83 0.499,-2.162 1.164,-2.495 7.65,-4.99 8.648,-4.657 9.646,-4.324 8.315,-2.994 7.484,-2.661 6.652,-2.329 -0.333,1.497 0,0 Z"
             style="fill:none;stroke:#1a2e35;stroke-width:1;stroke-linecap:round;stroke-linejoin:round;stroke-miterlimit:10;stroke-dasharray:none;stroke-opacity:1"
             id="path416" />
        </g>
        <g
           id="g418"
           transform="translate(367.4728,359.7896)">
          <path
             d="m 0,0 c 0,0 -5.322,-2.994 -6.32,-3.16 -0.997,-0.167 0.666,1.995 0.666,1.995 0,0 3.991,4.492 4.989,3.826 C 0.333,1.996 0,0 0,0"
             style="fill:#1a2e35;fill-opacity:1;fill-rule:nonzero;stroke:none"
             id="path420" />
        </g>
        <g
           id="g422"
           transform="translate(367.4728,359.7896)">
          <path
             d="m 0,0 c 0,0 -5.322,-2.994 -6.32,-3.16 -0.997,-0.167 0.666,1.995 0.666,1.995 0,0 3.991,4.492 4.989,3.826 C 0.333,1.996 0,0 0,0 Z"
             style="fill:none;stroke:#1a2e35;stroke-width:1;stroke-linecap:round;stroke-linejoin:round;stroke-miterlimit:10;stroke-dasharray:none;stroke-opacity:1"
             id="path424" />
        </g>
        <g
           id="g426"
           transform="translate(375.9552,353.1367)">
          <path
             d="M 0,0 C 0,0 2.828,-2.994 6.653,-0.666"
             style="fill:none;stroke:#1a2e35;stroke-width:1;stroke-linecap:round;stroke-linejoin:round;stroke-miterlimit:10;stroke-dasharray:none;stroke-opacity:1"
             id="path428" />
        </g>
        <g
           id="g430"
           transform="translate(362.1505,351.8062)">
          <path
             d="M 0,0 C 0,0 2.661,-1.664 5.322,0.998"
             style="fill:none;stroke:#1a2e35;stroke-width:1;stroke-linecap:round;stroke-linejoin:round;stroke-miterlimit:10;stroke-dasharray:none;stroke-opacity:1"
             id="path432" />
        </g>
        <g
           id="g434"
           transform="translate(396.5802,351.9722)">
          <path
             d="m 0,0 c 0.302,2.865 0.875,7.631 0.979,8.498 l -3.308,1.814 c 0,0 0.998,-12.308 -0.332,-19.127 -1.331,-6.819 -3.659,-8.981 -6.32,-9.979 -2.662,-0.998 -3.993,0.332 -3.993,0.332 0,0 -6.32,5.988 -11.975,6.154 -4.937,0.145 -8.731,-5.284 -9.615,-6.667 1.05,-4.276 2.126,-8.96 3.128,-10.963 1.498,-2.994 4.658,-5.821 9.315,-5.821 4.656,0 9.812,3.825 12.308,6.32 2.495,2.495 6.819,5.987 9.147,10.478 C 1.663,-14.47 -0.333,-3.16 0,0"
             style="fill:#1a2e35;fill-opacity:1;fill-rule:nonzero;stroke:none"
             id="path436" />
        </g>
        <g
           id="g438"
           transform="translate(396.5802,351.9722)">
          <path
             d="m 0,0 c 0.302,2.865 0.875,7.631 0.979,8.498 l -3.308,1.814 c 0,0 0.998,-12.308 -0.332,-19.127 -1.331,-6.819 -3.659,-8.981 -6.32,-9.979 -2.662,-0.998 -3.993,0.332 -3.993,0.332 0,0 -6.32,5.988 -11.975,6.154 -4.937,0.145 -8.731,-5.284 -9.615,-6.667 1.05,-4.276 2.126,-8.96 3.128,-10.963 1.498,-2.994 4.658,-5.821 9.315,-5.821 4.656,0 9.812,3.825 12.308,6.32 2.495,2.495 6.819,5.987 9.147,10.478 C 1.663,-14.47 -0.333,-3.16 0,0 Z"
             style="fill:none;stroke:#1a2e35;stroke-width:1;stroke-linecap:round;stroke-linejoin:round;stroke-miterlimit:10;stroke-dasharray:none;stroke-opacity:1"
             id="path440" />
        </g>
        <g
           id="g442"
           transform="translate(379.6144,328.5205)">
          <path
             d="m 0,0 c 0,0 -3.492,4.99 -6.818,5.821 -3.328,0.832 -6.82,-5.654 -5.656,-6.819 1.164,-1.164 2.828,3.161 5.988,1.83 C -3.326,-0.499 -1.496,-2.661 0,0"
             style="fill:#ffffff;fill-opacity:1;fill-rule:nonzero;stroke:none"
             id="path444" />
        </g>
        <g
           id="g446"
           transform="translate(379.6144,328.5205)">
          <path
             d="m 0,0 c 0,0 -3.492,4.99 -6.818,5.821 -3.328,0.832 -6.82,-5.654 -5.656,-6.819 1.164,-1.164 2.828,3.161 5.988,1.83 C -3.326,-0.499 -1.496,-2.661 0,0 Z"
             style="fill:none;stroke:#1a2e35;stroke-width:1;stroke-linecap:round;stroke-linejoin:round;stroke-miterlimit:10;stroke-dasharray:none;stroke-opacity:1"
             id="path448" />
        </g>
        <g
           id="g450"
           transform="translate(359.1573,382.0767)">
          <path
             d="m 0,0 c 0,0 -4.99,1.497 -8.15,-0.166 -3.161,-1.664 -4.658,-5.322 -4.658,-5.322 l 6.488,-0.499 2.993,-1.497 c 0,0 -1.33,0 -1.995,-1.83 -0.666,-1.83 -1.165,-3.992 -1.165,-3.992 0,0 2.329,1.331 5.988,1.83 3.659,0.499 10.811,2.661 10.811,2.661 l 0.832,-5.489 c 0,0 4.158,2.661 7.484,3.659 3.326,0.999 5.322,3.161 5.322,3.161 0,0 8.649,-3.327 8.483,-4.824 -0.166,-1.497 -3.161,-5.156 -2.162,-6.32 0.998,-1.164 3.659,-3.659 3.659,-3.659 l 9.979,-5.655 c 0,0 3.659,5.655 5.488,14.636 C 51.228,-4.324 42.911,5.323 35.926,7.984 28.939,10.645 23.784,9.647 19.46,9.48 15.135,9.314 9.147,10.645 9.147,10.645 L 13.14,6.487 c 0,0 -3.827,-1.497 -5.49,-1.83 C 5.987,4.325 3.16,3.493 2.494,3.826 1.829,4.158 -0.499,5.655 -0.499,5.655 -0.499,5.655 -1.663,0.666 0,0"
             style="fill:#1a2e35;fill-opacity:1;fill-rule:nonzero;stroke:none"
             id="path452" />
        </g>
        <g
           id="g454"
           transform="translate(359.1573,382.0767)">
          <path
             d="m 0,0 c 0,0 -4.99,1.497 -8.15,-0.166 -3.161,-1.664 -4.658,-5.322 -4.658,-5.322 l 6.488,-0.499 2.993,-1.497 c 0,0 -1.33,0 -1.995,-1.83 -0.666,-1.83 -1.165,-3.992 -1.165,-3.992 0,0 2.329,1.331 5.988,1.83 3.659,0.499 10.811,2.661 10.811,2.661 l 0.832,-5.489 c 0,0 4.158,2.661 7.484,3.659 3.326,0.999 5.322,3.161 5.322,3.161 0,0 8.649,-3.327 8.483,-4.824 -0.166,-1.497 -3.161,-5.156 -2.162,-6.32 0.998,-1.164 3.659,-3.659 3.659,-3.659 l 9.979,-5.655 c 0,0 3.659,5.655 5.488,14.636 C 51.228,-4.324 42.911,5.323 35.926,7.984 28.939,10.645 23.784,9.647 19.46,9.48 15.135,9.314 9.147,10.645 9.147,10.645 L 13.14,6.487 c 0,0 -3.827,-1.497 -5.49,-1.83 C 5.987,4.325 3.16,3.493 2.494,3.826 1.829,4.158 -0.499,5.655 -0.499,5.655 -0.499,5.655 -1.663,0.666 0,0 Z"
             style="fill:none;stroke:#1a2e35;stroke-width:1;stroke-linecap:round;stroke-linejoin:round;stroke-miterlimit:10;stroke-dasharray:none;stroke-opacity:1"
             id="path456" />
        </g>
        <g
           id="g458"
           transform="translate(399.2413,344.9868)">
          <path
             d="m 0,0 c 0,0 2.494,1.331 3.825,3.326 1.33,1.996 5.156,9.647 0.665,11.809 -3.402,1.638 -5.656,-1.302 -6.55,-2.826 -0.203,-1.732 -0.441,-3.797 -0.601,-5.324 -0.333,-3.16 1.663,-14.469 -0.666,-18.961 -2.328,-4.49 -6.652,-7.983 -9.148,-10.478 -0.958,-0.957 -2.309,-2.11 -3.872,-3.168 l 4.205,-1.156 c 0,0 1.33,-4.158 4.99,-8.815 3.659,-4.657 6.819,-7.651 6.819,-7.651 0,0 0.998,5.988 3.659,19.293 2.661,13.306 0.665,20.957 0.665,20.957 z"
             style="fill:#ffffff;fill-opacity:1;fill-rule:nonzero;stroke:none"
             id="path460" />
        </g>
        <g
           id="g462"
           transform="translate(399.2413,344.9868)">
          <path
             d="m 0,0 c 0,0 2.494,1.331 3.825,3.326 1.33,1.996 5.156,9.647 0.665,11.809 -3.402,1.638 -5.656,-1.302 -6.55,-2.826 -0.203,-1.732 -0.441,-3.797 -0.601,-5.324 -0.333,-3.16 1.663,-14.469 -0.666,-18.961 -2.328,-4.49 -6.652,-7.983 -9.148,-10.478 -0.958,-0.957 -2.309,-2.11 -3.872,-3.168 l 4.205,-1.156 c 0,0 1.33,-4.158 4.99,-8.815 3.659,-4.657 6.819,-7.651 6.819,-7.651 0,0 0.998,5.988 3.659,19.293 2.661,13.306 0.665,20.957 0.665,20.957 z"
             style="fill:none;stroke:#1a2e35;stroke-width:1;stroke-linecap:round;stroke-linejoin:round;stroke-miterlimit:10;stroke-dasharray:none;stroke-opacity:1"
             id="path464" />
        </g>
        <g
           id="g466"
           transform="translate(387.0997,318.2085)">
          <path
             d="M 0,0 5.821,-1.663 2.993,-5.821 c 0,0 -2.328,3.825 -2.993,5.821"
             style="fill:#1a2e35;fill-opacity:1;fill-rule:nonzero;stroke:none"
             id="path468" />
        </g>
        <g
           id="g470"
           transform="translate(387.0997,318.2085)">
          <path
             d="M 0,0 5.821,-1.663 2.993,-5.821 c 0,0 -2.328,3.825 -2.993,5.821 z"
             style="fill:none;stroke:#1a2e35;stroke-width:1;stroke-linecap:round;stroke-linejoin:round;stroke-miterlimit:10;stroke-dasharray:none;stroke-opacity:1"
             id="path472" />
        </g>
        <g
           id="g474"
           transform="translate(422.214,322.6665)">
          <path
             d="m 0,0 4.825,-120.619 10.807,-0.771 c 0,0 9.264,38.983 11.966,52.3 2.702,13.316 3.667,21.808 3.473,32.422 -0.193,10.614 -2.702,32.615 -2.702,32.615 0,0 -5.597,9.457 -10.421,12.738"
             style="fill:#5ae4a7;fill-opacity:1;fill-rule:nonzero;stroke:#1a2e35;stroke-width:1;stroke-linecap:round;stroke-linejoin:round;stroke-miterlimit:10;stroke-dasharray:none;stroke-opacity:1"
             id="path476" />
        </g>
        <g
           id="g478"
           transform="translate(444.1632,300.1113)">
          <path
             d="M 0,0 C 0.999,3.153 1.596,5.186 1.596,5.186"
             style="fill:none;stroke:#1a2e35;stroke-width:1;stroke-linecap:round;stroke-linejoin:round;stroke-miterlimit:10;stroke-dasharray:none;stroke-opacity:1"
             id="path480" />
        </g>
        <g
           id="g482"
           transform="translate(425.1085,252.8042)">
          <path
             d="m 0,0 c 0,0 4.632,10.808 10.036,22.773 2.943,6.517 5.829,14.752 7.847,20.9"
             style="fill:none;stroke:#1a2e35;stroke-width:1;stroke-linecap:round;stroke-linejoin:round;stroke-miterlimit:10;stroke-dasharray:none;stroke-opacity:1"
             id="path484" />
        </g>
        <g
           id="g486"
           transform="translate(437.9454,269.1436)">
          <path
             d="M 0,0 C -0.304,-0.83 -0.597,-1.53 -0.871,-2.058"
             style="fill:none;stroke:#1a2e35;stroke-width:1;stroke-linecap:round;stroke-linejoin:round;stroke-miterlimit:10;stroke-dasharray:none;stroke-opacity:1"
             id="path488" />
        </g>
        <g
           id="g490"
           transform="translate(443.6359,291.209)">
          <path
             d="M 0,0 C 0,0 -2.381,-11.338 -4.623,-18.806"
             style="fill:none;stroke:#1a2e35;stroke-width:1;stroke-linecap:round;stroke-linejoin:round;stroke-miterlimit:10;stroke-dasharray:none;stroke-opacity:1"
             id="path492" />
        </g>
        <g
           id="g494"
           transform="translate(427.0392,212.6621)">
          <path
             d="M 0,0 12.93,-0.578"
             style="fill:none;stroke:#1a2e35;stroke-width:1;stroke-linecap:round;stroke-linejoin:round;stroke-miterlimit:10;stroke-dasharray:none;stroke-opacity:1"
             id="path496" />
        </g>
        <g
           id="g498"
           transform="translate(427.0392,202.0479)">
          <path
             d="m 0,0 c 0,0 -1.509,-18.62 -1.509,-20.229 0,-1.61 1.287,-13.359 1.61,-14.325 0.321,-0.965 8.53,-7.081 9.335,-7.081 0.804,0 5.31,-0.482 6.115,0.805 0.804,1.287 1.127,2.092 0,2.414 -1.126,0.322 -4.185,0.161 -4.185,0.161 l -1.77,0.805 c 0,0 6.598,0.643 7.082,0.804 0.482,0.162 2.896,1.771 3.38,2.897 0.482,1.127 -0.323,2.415 -0.323,2.415 0,0 2.414,2.253 2.576,3.058 0.161,0.804 0.322,3.057 -0.805,2.736 -1.127,-0.322 -2.736,-2.093 -2.736,-2.093 h -4.024 c 0,0 4.185,2.737 4.668,3.541 0.482,0.805 1.126,4.185 0.965,5.151 -0.16,0.965 -2.253,-0.162 -2.735,-1.127 -0.484,-0.966 -1.289,-3.541 -1.289,-3.541 l -4.828,-0.644 -1.609,2.093 c 0,0 3.219,9.978 3.219,12.07 0,2.093 -2.33,9.319 -2.33,9.319 z"
             style="fill:#ffffff;fill-opacity:1;fill-rule:nonzero;stroke:none"
             id="path500" />
        </g>
        <g
           id="g502"
           transform="translate(427.0392,202.0479)">
          <path
             d="m 0,0 c 0,0 -1.509,-18.62 -1.509,-20.229 0,-1.61 1.287,-13.359 1.61,-14.325 0.321,-0.965 8.53,-7.081 9.335,-7.081 0.804,0 5.31,-0.482 6.115,0.805 0.804,1.287 1.127,2.092 0,2.414 -1.126,0.322 -4.185,0.161 -4.185,0.161 l -1.77,0.805 c 0,0 6.598,0.643 7.082,0.804 0.482,0.162 2.896,1.771 3.38,2.897 0.482,1.127 -0.323,2.415 -0.323,2.415 0,0 2.414,2.253 2.576,3.058 0.161,0.804 0.322,3.057 -0.805,2.736 -1.127,-0.322 -2.736,-2.093 -2.736,-2.093 h -4.024 c 0,0 4.185,2.737 4.668,3.541 0.482,0.805 1.126,4.185 0.965,5.151 -0.16,0.965 -2.253,-0.162 -2.735,-1.127 -0.484,-0.966 -1.289,-3.541 -1.289,-3.541 l -4.828,-0.644 -1.609,2.093 c 0,0 3.219,9.978 3.219,12.07 0,2.093 -2.33,9.319 -2.33,9.319 z"
             style="fill:none;stroke:#1a2e35;stroke-width:1;stroke-linecap:round;stroke-linejoin:round;stroke-miterlimit:10;stroke-dasharray:none;stroke-opacity:1"
             id="path504" />
        </g>
        <g
           id="g506"
           transform="translate(432.9337,177.6338)">
          <path
             d="m 0,0 c 0,0 3.541,-3.058 4.506,-3.38 0.966,-0.321 4.346,0.161 4.346,0.161"
             style="fill:none;stroke:#1a2e35;stroke-width:1;stroke-linecap:round;stroke-linejoin:round;stroke-miterlimit:10;stroke-dasharray:none;stroke-opacity:1"
             id="path508" />
        </g>
        <g
           id="g510"
           transform="translate(430.8409,174.0937)">
          <path
             d="m 0,0 c 0,0 5.473,-4.829 6.921,-4.829 1.448,0 9.013,1.449 9.013,1.449"
             style="fill:none;stroke:#1a2e35;stroke-width:1;stroke-linecap:round;stroke-linejoin:round;stroke-miterlimit:10;stroke-dasharray:none;stroke-opacity:1"
             id="path512" />
        </g>
        <g
           id="g514"
           transform="translate(429.715,169.9092)">
          <path
             d="M 0,0 C 0,0 3.219,-3.863 4.185,-4.185 5.15,-4.507 6.92,-5.312 6.92,-5.312"
             style="fill:none;stroke:#1a2e35;stroke-width:1;stroke-linecap:round;stroke-linejoin:round;stroke-miterlimit:10;stroke-dasharray:none;stroke-opacity:1"
             id="path516" />
        </g>
      </g>
    </g>
  </g>
</svg>
